<?xml version="1.0" encoding="UTF-8"?>
<svg version="1.1" xmlns="http://www.w3.org/2000/svg" width="460" height="460">
<path d="M0 0 C151.8 0 303.6 0 460 0 C460 151.8 460 303.6 460 460 C308.2 460 156.4 460 0 460 C0 308.2 0 156.4 0 0 Z " fill="#FEFEFE" transform="translate(0,0)"/>
<path d="M0 0 C18.81 0 37.62 0 57 0 C57 2.97 57 5.94 57 9 C59.97 9 62.94 9 66 9 C66 12.3 66 15.6 66 19 C78.54 19 91.08 19 104 19 C104 21.97 104 24.94 104 28 C100.7 28 97.4 28 94 28 C94 34.27 94 40.54 94 47 C97.3 47 100.6 47 104 47 C104 50.3 104 53.6 104 57 C110.27 57 116.54 57 123 57 C123 59.97 123 62.94 123 66 C119.7 66 116.4 66 113 66 C113 75.24 113 84.48 113 94 C119.27 94 125.54 94 132 94 C132 97.3 132 100.6 132 104 C129.03 104 126.06 104 123 104 C123 113.24 123 122.48 123 132 C119.7 132 116.4 132 113 132 C113 135.3 113 138.6 113 142 C116.3 142 119.6 142 123 142 C123 144.97 123 147.94 123 151 C116.73 151 110.46 151 104 151 C104 154.3 104 157.6 104 161 C94.76 161 85.52 161 76 161 C76 163.97 76 166.94 76 170 C57.19 170 38.38 170 19 170 C19 167.03 19 164.06 19 161 C12.73 161 6.46 161 0 161 C0 163.97 0 166.94 0 170 C-2.97 170 -5.94 170 -9 170 C-9 166.7 -9 163.4 -9 160 C-6.03 160 -3.06 160 0 160 C0 157.03 0 154.06 0 151 C-2.97 151 -5.94 151 -9 151 C-9 107.44 -9 63.88 -9 19 C-6.03 19 -3.06 19 0 19 C0 12.73 0 6.46 0 0 Z " fill="#393C57" transform="translate(286,107)"/>
<path d="M0 0 C15.84 0 31.68 0 48 0 C48 2.97 48 5.94 48 9 C50.97 9 53.94 9 57 9 C57 12.3 57 15.6 57 19 C60.3 19 63.6 19 67 19 C67 22.3 67 25.6 67 29 C69.97 29 72.94 29 76 29 C76 63.32 76 97.64 76 133 C78.97 133 81.94 133 85 133 C85 135.97 85 138.94 85 142 C79.06 142 73.12 142 67 142 C67 145.3 67 148.6 67 152 C60.73 152 54.46 152 48 152 C48 154.97 48 157.94 48 161 C29.19 161 10.38 161 -9 161 C-9 158.03 -9 155.06 -9 152 C-11.97 152 -14.94 152 -18 152 C-18 154.97 -18 157.94 -18 161 C-30.54 161 -43.08 161 -56 161 C-56 157.7 -56 154.4 -56 151 C-53.03 151 -50.06 151 -47 151 C-47 148.03 -47 145.06 -47 142 C-49.97 142 -52.94 142 -56 142 C-56 138.7 -56 135.4 -56 132 C-58.97 132 -61.94 132 -65 132 C-65 129.03 -65 126.06 -65 123 C-68.3 123 -71.6 123 -75 123 C-75 120.03 -75 117.06 -75 114 C-71.7 114 -68.4 114 -65 114 C-65 104.43 -65 94.86 -65 85 C-71.27 85 -77.54 85 -84 85 C-84 82.03 -84 79.06 -84 76 C-81.03 76 -78.06 76 -75 76 C-75 72.7 -75 69.4 -75 66 C-71.7 66 -68.4 66 -65 66 C-65 63.03 -65 60.06 -65 57 C-62.03 57 -59.06 57 -56 57 C-56 50.73 -56 44.46 -56 38 C-62.27 38 -68.54 38 -75 38 C-75 35.03 -75 32.06 -75 29 C-81.27 29 -87.54 29 -94 29 C-94 25.7 -94 22.4 -94 19 C-87.73 19 -81.46 19 -75 19 C-75 21.97 -75 24.94 -75 28 C-62.46 28 -49.92 28 -37 28 C-37 25.36 -37 22.72 -37 20 C-31.06 20 -25.12 20 -19 20 C-19 22.64 -19 25.28 -19 28 C-21.97 28 -24.94 28 -28 28 C-28 31.3 -28 34.6 -28 38 C-30.97 38 -33.94 38 -37 38 C-37 40.97 -37 43.94 -37 47 C-40.3 47 -43.6 47 -47 47 C-47 53.27 -47 59.54 -47 66 C-49.97 66 -52.94 66 -56 66 C-56 84.81 -56 103.62 -56 123 C-53.03 123 -50.06 123 -47 123 C-47 126.3 -47 129.6 -47 133 C-43.7 133 -40.4 133 -37 133 C-37 135.97 -37 138.94 -37 142 C-27.76 142 -18.52 142 -9 142 C-9 144.97 -9 147.94 -9 151 C9.48 151 27.96 151 47 151 C47 148.03 47 145.06 47 142 C53.27 142 59.54 142 66 142 C66 132.76 66 123.52 66 114 C63.03 114 60.06 114 57 114 C57 116.97 57 119.94 57 123 C54.03 123 51.06 123 48 123 C48 126.3 48 129.6 48 133 C35.46 133 22.92 133 10 133 C10 129.7 10 126.4 10 123 C7.03 123 4.06 123 1 123 C1 120.03 1 117.06 1 114 C-2.3 114 -5.6 114 -9 114 C-9 98.16 -9 82.32 -9 66 C-5.7 66 -2.4 66 1 66 C1 68.97 1 71.94 1 75 C3.97 75 6.94 75 10 75 C10 72.03 10 69.06 10 66 C12.97 66 15.94 66 19 66 C19 63.03 19 60.06 19 57 C16.03 57 13.06 57 10 57 C10 54.03 10 51.06 10 48 C7.03 48 4.06 48 1 48 C1 50.97 1 53.94 1 57 C-2.3 57 -5.6 57 -9 57 C-9 50.73 -9 44.46 -9 38 C-5.7 38 -2.4 38 1 38 C1 35.03 1 32.06 1 29 C16.51 29 32.02 29 48 29 C48 31.97 48 34.94 48 38 C50.97 38 53.94 38 57 38 C57 34.7 57 31.4 57 28 C54.03 28 51.06 28 48 28 C48 25.03 48 22.06 48 19 C26.22 19 4.44 19 -18 19 C-18 15.7 -18 12.4 -18 9 C-12.06 9 -6.12 9 0 9 C0 6.03 0 3.06 0 0 Z " fill="#3A3D57" transform="translate(125,135)"/>
<path d="M0 0 C15.84 0 31.68 0 48 0 C48 2.97 48 5.94 48 9 C50.97 9 53.94 9 57 9 C57 12.3 57 15.6 57 19 C60.3 19 63.6 19 67 19 C67 21.97 67 24.94 67 28 C69.97 28 72.94 28 76 28 C76 31.3 76 34.6 76 38 C78.97 38 81.94 38 85 38 C85 44.27 85 50.54 85 57 C88.3 57 91.6 57 95 57 C95 75.48 95 93.96 95 113 C91.7 113 88.4 113 85 113 C85 116.3 85 119.6 85 123 C82.03 123 79.06 123 76 123 C76 125.97 76 128.94 76 132 C72.7 132 69.4 132 66 132 C66 134.97 66 137.94 66 141 C47.52 141 29.04 141 10 141 C10 138.03 10 135.06 10 132 C3.73 132 -2.54 132 -9 132 C-9 125.73 -9 119.46 -9 113 C-5.7 113 -2.4 113 1 113 C1 116.3 1 119.6 1 123 C13.54 123 26.08 123 39 123 C39 119.7 39 116.4 39 113 C41.97 113 44.94 113 48 113 C48 110.03 48 107.06 48 104 C50.97 104 53.94 104 57 104 C57 100.7 57 97.4 57 94 C54.03 94 51.06 94 48 94 C48 91.03 48 88.06 48 85 C50.97 85 53.94 85 57 85 C57 66.19 57 47.38 57 28 C54.03 28 51.06 28 48 28 C48 25.03 48 22.06 48 19 C44.7 19 41.4 19 38 19 C38 15.7 38 12.4 38 9 C25.79 9 13.58 9 1 9 C1 12.3 1 15.6 1 19 C-2.3 19 -5.6 19 -9 19 C-9 15.7 -9 12.4 -9 9 C-6.03 9 -3.06 9 0 9 C0 6.03 0 3.06 0 0 Z " fill="#FBFBFC" transform="translate(295,126)"/>
<path d="M0 0 C18.81 0 37.62 0 57 0 C57 2.97 57 5.94 57 9 C59.97 9 62.94 9 66 9 C66 12.3 66 15.6 66 19 C78.54 19 91.08 19 104 19 C104 21.97 104 24.94 104 28 C100.7 28 97.4 28 94 28 C94 34.27 94 40.54 94 47 C97.3 47 100.6 47 104 47 C104 50.3 104 53.6 104 57 C110.27 57 116.54 57 123 57 C123 59.97 123 62.94 123 66 C119.7 66 116.4 66 113 66 C113 75.24 113 84.48 113 94 C119.27 94 125.54 94 132 94 C132 97.3 132 100.6 132 104 C129.03 104 126.06 104 123 104 C123 113.24 123 122.48 123 132 C119.7 132 116.4 132 113 132 C113 135.3 113 138.6 113 142 C116.3 142 119.6 142 123 142 C123 144.97 123 147.94 123 151 C116.73 151 110.46 151 104 151 C104 154.3 104 157.6 104 161 C94.76 161 85.52 161 76 161 C76 163.97 76 166.94 76 170 C57.19 170 38.38 170 19 170 C19 167.03 19 164.06 19 161 C12.73 161 6.46 161 0 161 C0 163.97 0 166.94 0 170 C-2.97 170 -5.94 170 -9 170 C-9 166.7 -9 163.4 -9 160 C-6.03 160 -3.06 160 0 160 C0 157.03 0 154.06 0 151 C6.27 151 12.54 151 19 151 C19 153.97 19 156.94 19 160 C37.48 160 55.96 160 75 160 C75 157.03 75 154.06 75 151 C78.3 151 81.6 151 85 151 C85 148.03 85 145.06 85 142 C87.97 142 90.94 142 94 142 C94 138.7 94 135.4 94 132 C97.3 132 100.6 132 104 132 C104 113.52 104 95.04 104 76 C100.7 76 97.4 76 94 76 C94 69.73 94 63.46 94 57 C91.03 57 88.06 57 85 57 C85 53.7 85 50.4 85 47 C82.03 47 79.06 47 76 47 C76 44.03 76 41.06 76 38 C72.7 38 69.4 38 66 38 C66 34.7 66 31.4 66 28 C63.03 28 60.06 28 57 28 C57 25.03 57 22.06 57 19 C41.16 19 25.32 19 9 19 C8.67 20.32 8.34 21.64 8 23 C7.505 20.525 7.505 20.525 7 18 C6.67 19.65 6.34 21.3 6 23 C3.69 23 1.38 23 -1 23 C-0.01 22.67 0.98 22.34 2 22 C1.34 21.67 0.68 21.34 0 21 C0 14.07 0 7.14 0 0 Z " fill="#3A3D57" transform="translate(286,107)"/>
<path d="M0 0 C15.18 0 30.36 0 46 0 C46 1.65 46 3.3 46 5 C44.68 5.33 43.36 5.66 42 6 C42.20625 6.5775 42.4125 7.155 42.625 7.75 C43.08661261 10.51967567 42.42944945 11.64561267 41 14 C40.01 14 39.02 14 38 14 C38 14.99 38 15.98 38 17 C38.99 17.33 39.98 17.66 41 18 C40.34 18.66 39.68 19.32 39 20 C38.505 20.53625 38.01 21.0725 37.5 21.625 C36 23 36 23 34 23 C34 21.68 34 20.36 34 19 C33.01 19.495 33.01 19.495 32 20 C32.50603992 22.16874252 32.99983813 23.99967627 34 26 C37.0399648 26.69337792 37.0399648 26.69337792 40.5625 27.125 C41.76003906 27.29257813 42.95757812 27.46015625 44.19140625 27.6328125 C45.11824219 27.75398438 46.04507813 27.87515625 47 28 C47 30.97 47 33.94 47 37 C49.97 37 52.94 37 56 37 C56.33 49.54 56.66 62.08 57 75 C52.545 75.495 52.545 75.495 48 76 C47.67 78.97 47.34 81.94 47 85 C44.03 85 41.06 85 38 85 C38 87.97 38 90.94 38 94 C28.76 94 19.52 94 10 94 C10 96.97 10 99.94 10 103 C21.88 103 33.76 103 46 103 C46 100.03 46 97.06 46 94 C46.33 94 46.66 94 47 94 C47 97.3 47 100.6 47 104 C34.46 104 21.92 104 9 104 C9 100.7 9 97.4 9 94 C6.03 94 3.06 94 0 94 C0 91.03 0 88.06 0 85 C-3.3 85 -6.6 85 -10 85 C-10 69.16 -10 53.32 -10 37 C-6.7 37 -3.4 37 0 37 C0 39.97 0 42.94 0 46 C2.97 46 5.94 46 9 46 C9 43.03 9 40.06 9 37 C11.97 37 14.94 37 18 37 C18 34.03 18 31.06 18 28 C15.03 28 12.06 28 9 28 C9 25.03 9 22.06 9 19 C6.03 19 3.06 19 0 19 C0 21.97 0 24.94 0 28 C-3.3 28 -6.6 28 -10 28 C-10 21.73 -10 15.46 -10 9 C-6.7 9 -3.4 9 0 9 C0 6.03 0 3.06 0 0 Z " fill="#383A55" transform="translate(126,164)"/>
<path d="M0 0 C6.27 0 12.54 0 19 0 C19 3.3 19 6.6 19 10 C20.05912598 9.99214478 20.05912598 9.99214478 21.13964844 9.98413086 C24.34308988 9.96332587 27.5465171 9.95032859 30.75 9.9375 C31.86117187 9.92912109 32.97234375 9.92074219 34.1171875 9.91210938 C35.18710938 9.90888672 36.25703125 9.90566406 37.359375 9.90234375 C38.83615723 9.89448853 38.83615723 9.89448853 40.34277344 9.88647461 C43 10 43 10 47 11 C47 23.21 47 35.42 47 48 C50.3 48 53.6 48 57 48 C57 50.97 57 53.94 57 57 C59.97 57 62.94 57 66 57 C66 60.3 66 63.6 66 67 C78.54 67 91.08 67 104 67 C104 63.7 104 60.4 104 57 C106.97 57 109.94 57 113 57 C113 54.03 113 51.06 113 48 C115.97 48 118.94 48 122 48 C122 57.24 122 66.48 122 76 C115.73 76 109.46 76 103 76 C103 78.97 103 81.94 103 85 C84.52 85 66.04 85 47 85 C47 82.03 47 79.06 47 76 C37.76 76 28.52 76 19 76 C19 73.03 19 70.06 19 67 C15.7 67 12.4 67 9 67 C9 63.7 9 60.4 9 57 C6.03 57 3.06 57 0 57 C0 38.19 0 19.38 0 0 Z " fill="#FBFCFC" transform="translate(69,201)"/>
<path d="M0 0 C12.87 0 25.74 0 39 0 C39 2.97 39 5.94 39 9 C41.97 9 44.94 9 48 9 C48 18.57 48 28.14 48 38 C45.03 38 42.06 38 39 38 C39 40.97 39 43.94 39 47 C29.43 47 19.86 47 10 47 C10 49.97 10 52.94 10 56 C6.7 56 3.4 56 0 56 C0 59.3 0 62.6 0 66 C-9.24 66 -18.48 66 -28 66 C-28 62.7 -28 59.4 -28 56 C-30.97 56 -33.94 56 -37 56 C-37 46.76 -37 37.52 -37 28 C-34.03 28 -31.06 28 -28 28 C-28 24.7 -28 21.4 -28 18 C-25.03 18 -22.06 18 -19 18 C-19 15.03 -19 12.06 -19 9 C-12.73 9 -6.46 9 0 9 C0 6.03 0 3.06 0 0 Z " fill="#3A3D56" transform="translate(257,362)"/>
<path d="M0 0 C28.05 0 56.1 0 85 0 C85 2.97 85 5.94 85 9 C87.97 9 90.94 9 94 9 C94 12.3 94 15.6 94 19 C91.03 19 88.06 19 85 19 C85 16.03 85 13.06 85 10 C69.49 10 53.98 10 38 10 C38 12.97 38 15.94 38 19 C34.7 19 31.4 19 28 19 C28 25.27 28 31.54 28 38 C31.3 38 34.6 38 38 38 C38 35.03 38 32.06 38 29 C40.97 29 43.94 29 47 29 C47 31.97 47 34.94 47 38 C49.97 38 52.94 38 56 38 C56 40.97 56 43.94 56 47 C53.03 47 50.06 47 47 47 C47 49.97 47 52.94 47 56 C44.03 56 41.06 56 38 56 C38 53.03 38 50.06 38 47 C34.7 47 31.4 47 28 47 C28 50.63 28 54.26 28 58 C14.14 57.505 14.14 57.505 0 57 C0 53.7 0 50.4 0 47 C-3.3 47 -6.6 47 -10 47 C-10 40.73 -10 34.46 -10 28 C-6.7 28 -3.4 28 0 28 C0 25.03 0 22.06 0 19 C2.97 19 5.94 19 9 19 C9 15.7 9 12.4 9 9 C11.97 9 14.94 9 18 9 C18 6.36 18 3.72 18 1 C12.06 1 6.12 1 0 1 C0 0.67 0 0.34 0 0 Z " fill="#CEEEFA" transform="translate(88,154)"/>
<path d="M0 0 C3.63 0 7.26 0 11 0 C11 2.97 11 5.94 11 9 C16.94 9 22.88 9 29 9 C29 11.97 29 14.94 29 18 C31.97 18 34.94 18 38 18 C38 12.06 38 6.12 38 0 C44.27 0 50.54 0 57 0 C57 3.3 57 6.6 57 10 C54.36 10 51.72 10 49 10 C49 12.97 49 15.94 49 19 C45.7 19 42.4 19 39 19 C39 21.97 39 24.94 39 28 C35.7 28 32.4 28 29 28 C29 31.3 29 34.6 29 38 C26.03 38 23.06 38 20 38 C18 31.25 18 31.25 18 29 C15.69 29 13.38 29 11 29 C11.020625 30.27875 11.04125 31.5575 11.0625 32.875 C11.125 36.75 11.125 36.75 10 39 C7.03 39 4.06 39 1 39 C-0.60725635 35.78548731 -0.05748185 32.56387464 0 29 C-2.68826864 29.11490912 -5.37513469 29.24163199 -8.0625 29.375 C-8.81466797 29.4059375 -9.56683594 29.436875 -10.34179688 29.46875 C-15.11679365 29.71680178 -19.56698436 30.06867344 -24 32 C-24.66 33.98 -25.32 35.96 -26 38 C-41.84 38 -57.68 38 -74 38 C-74 34.7 -74 31.4 -74 28 C-77.3 28 -80.6 28 -84 28 C-84 25.03 -84 22.06 -84 19 C-68.49 19 -52.98 19 -37 19 C-37 15.7 -37 12.4 -37 9 C-33.85411056 8.97316303 -30.70844729 8.95324098 -27.5625 8.9375 C-26.21575195 8.92493164 -26.21575195 8.92493164 -24.84179688 8.91210938 C-23.98779297 8.90888672 -23.13378906 8.90566406 -22.25390625 8.90234375 C-21.46314697 8.89710693 -20.6723877 8.89187012 -19.85766602 8.88647461 C-18 9 -18 9 -17 10 C-16.92820036 11.51928038 -16.91607993 13.04167482 -16.9375 14.5625 C-16.94652344 15.38878906 -16.95554687 16.21507812 -16.96484375 17.06640625 C-16.97644531 17.70449219 -16.98804688 18.34257812 -17 19 C-15.71222656 18.98839844 -14.42445313 18.97679687 -13.09765625 18.96484375 C-11.41927228 18.9554673 -9.74088674 18.94636695 -8.0625 18.9375 C-6.78729492 18.92493164 -6.78729492 18.92493164 -5.48632812 18.91210938 C-4.67744141 18.90888672 -3.86855469 18.90566406 -3.03515625 18.90234375 C-2.2862915 18.89710693 -1.53742676 18.89187012 -0.76586914 18.88647461 C1 19 1 19 2 20 C2.04092937 22.33297433 2.04241723 24.66705225 2 27 C4.31 27 6.62 27 9 27 C8.98839844 26.19175781 8.97679687 25.38351562 8.96484375 24.55078125 C8.95582031 23.48214844 8.94679688 22.41351563 8.9375 21.3125 C8.92589844 20.25675781 8.91429687 19.20101563 8.90234375 18.11328125 C8.99134575 15.27589738 9.35060162 12.7561081 10 10 C6.7 10 3.4 10 0 10 C0 6.7 0 3.4 0 0 Z " fill="#D9F2F9" transform="translate(323,296)"/>
<path d="M0 0 C18.81 0 37.62 0 57 0 C57 6.27 57 12.54 57 19 C60.3 19 63.6 19 67 19 C67 22.3 67 25.6 67 29 C63.7 29 60.4 29 57 29 C57 26.03 57 23.06 57 20 C41.49 20 25.98 20 10 20 C10 22.97 10 25.94 10 29 C7.03 29 4.06 29 1 29 C1 32.3 1 35.6 1 39 C-1.97 39 -4.94 39 -8 39 C-8 41.97 -8 44.94 -8 48 C-11.63 48 -15.26 48 -19 48 C-19 41.73 -19 35.46 -19 29 C-21.64 29 -24.28 29 -27 29 C-27 35.27 -27 41.54 -27 48 C-30.63 48 -34.26 48 -38 48 C-38 41.4 -38 34.8 -38 28 C-34.7 28 -31.4 28 -28 28 C-28 25.03 -28 22.06 -28 19 C-24.7 19 -21.4 19 -18 19 C-18 21.97 -18 24.94 -18 28 C-15.03 28 -12.06 28 -9 28 C-9 25.03 -9 22.06 -9 19 C-6.03 19 -3.06 19 0 19 C0 12.73 0 6.46 0 0 Z " fill="#373B54" transform="translate(295,50)"/>
<path d="M0 0 C3.3 0 6.6 0 10 0 C10 2.97 10 5.94 10 9 C12.97 9 15.94 9 19 9 C19 15.27 19 21.54 19 28 C22.3 28 25.6 28 29 28 C29 31.3 29 34.6 29 38 C25.7 38 22.4 38 19 38 C19 35.03 19 32.06 19 29 C-8.72 29 -36.44 29 -65 29 C-65 31.97 -65 34.94 -65 38 C-68.3 38 -71.6 38 -75 38 C-75 34.7 -75 31.4 -75 28 C-72.03 28 -69.06 28 -66 28 C-66 21.73 -66 15.46 -66 9 C-44.22 9 -22.44 9 0 9 C0 6.03 0 3.06 0 0 Z " fill="#383A54" transform="translate(163,88)"/>
<path d="M0 0 C0 0.99 0 1.98 0 3 C0.495 3.495 0.495 3.495 1 4 C1.14257189 7.33618231 1.04228157 10.65975606 1 14 C4.3 14 7.6 14 11 14 C11 16.97 11 19.94 11 23 C4.73 23 -1.54 23 -8 23 C-8 26.3 -8 29.6 -8 33 C-17.24 33 -26.48 33 -36 33 C-36 35.97 -36 38.94 -36 42 C-54.81 42 -73.62 42 -93 42 C-93 39.03 -93 36.06 -93 33 C-99.27 33 -105.54 33 -112 33 C-112 35.97 -112 38.94 -112 42 C-114.97 42 -117.94 42 -121 42 C-121 38.7 -121 35.4 -121 32 C-118.03 32 -115.06 32 -112 32 C-112 29.03 -112 26.06 -112 23 C-105.73 23 -99.46 23 -93 23 C-93 25.97 -93 28.94 -93 32 C-74.52 32 -56.04 32 -37 32 C-37 29.03 -37 26.06 -37 23 C-33.7 23 -30.4 23 -27 23 C-27 20.03 -27 17.06 -27 14 C-24.03 14 -21.06 14 -18 14 C-18 10.7 -18 7.4 -18 4 C-17.15695312 3.93941406 -16.31390625 3.87882813 -15.4453125 3.81640625 C-14.34960938 3.73261719 -13.25390625 3.64882812 -12.125 3.5625 C-10.48917969 3.44068359 -10.48917969 3.44068359 -8.8203125 3.31640625 C-6.05271029 3.16998297 -6.05271029 3.16998297 -4 2 C-4 2.99 -4 3.98 -4 5 C-3.34 5 -2.68 5 -2 5 C-1.855625 4.360625 -1.71125 3.72125 -1.5625 3.0625 C-1 1 -1 1 0 0 Z " fill="#3B3D56" transform="translate(398,235)"/>
<path d="M0 0 C0.33 0 0.66 0 1 0 C1 12.54 1 25.08 1 38 C-5.27 38 -11.54 38 -18 38 C-18 40.97 -18 43.94 -18 47 C-36.81 47 -55.62 47 -75 47 C-75 44.03 -75 41.06 -75 38 C-77.97 38 -80.94 38 -84 38 C-84 40.97 -84 43.94 -84 47 C-96.54 47 -109.08 47 -122 47 C-122 43.7 -122 40.4 -122 37 C-119.03 37 -116.06 37 -113 37 C-113 34.03 -113 31.06 -113 28 C-115.97 28 -118.94 28 -122 28 C-122 25.03 -122 22.06 -122 19 C-121.67 19 -121.34 19 -121 19 C-121 21.64 -121 24.28 -121 27 C-120.34 26.67 -119.68 26.34 -119 26 C-119 24.35 -119 22.7 -119 21 C-118.34 21 -117.68 21 -117 21 C-117 20.34 -117 19.68 -117 19 C-112.38 19 -107.76 19 -103 19 C-103 21.97 -103 24.94 -103 28 C-93.76 28 -84.52 28 -75 28 C-75 30.97 -75 33.94 -75 37 C-56.52 37 -38.04 37 -19 37 C-19 34.03 -19 31.06 -19 28 C-12.73 28 -6.46 28 0 28 C0 18.76 0 9.52 0 0 Z " fill="#3E4058" transform="translate(191,249)"/>
<path d="M0 0 C15.84 0 31.68 0 48 0 C48 2.97 48 5.94 48 9 C50.97 9 53.94 9 57 9 C57 12.3 57 15.6 57 19 C60.3 19 63.6 19 67 19 C67 21.97 67 24.94 67 28 C69.97 28 72.94 28 76 28 C76 31.3 76 34.6 76 38 C78.97 38 81.94 38 85 38 C85 40.97 85 43.94 85 47 C82.03 47 79.06 47 76 47 C75.67 49.97 75.34 52.94 75 56 C69.39 56 63.78 56 58 56 C58 71.51 58 87.02 58 103 C57.67 103 57.34 103 57 103 C57 100.03 57 97.06 57 94 C54.03 94 51.06 94 48 94 C48 91.03 48 88.06 48 85 C50.97 85 53.94 85 57 85 C57 66.19 57 47.38 57 28 C54.03 28 51.06 28 48 28 C48 25.03 48 22.06 48 19 C44.7 19 41.4 19 38 19 C38 15.7 38 12.4 38 9 C25.79 9 13.58 9 1 9 C1 12.3 1 15.6 1 19 C-2.3 19 -5.6 19 -9 19 C-9 15.7 -9 12.4 -9 9 C-6.03 9 -3.06 9 0 9 C0 6.03 0 3.06 0 0 Z " fill="#CEEBF7" transform="translate(295,126)"/>
<path d="M0 0 C6.27 0 12.54 0 19 0 C19 6.27 19 12.54 19 19 C16.03 19 13.06 19 10 19 C10 22.3 10 25.6 10 29 C-5.51 29 -21.02 29 -37 29 C-37 25.7 -37 22.4 -37 19 C-40.3 19 -43.6 19 -47 19 C-47 16.03 -47 13.06 -47 10 C-31.49 10 -15.98 10 0 10 C0 6.7 0 3.4 0 0 Z " fill="#7FDFF4" transform="translate(286,305)"/>
<path d="M0 0 C15.18 0 30.36 0 46 0 C46 1.65 46 3.3 46 5 C44.68 5.33 43.36 5.66 42 6 C42.20625 6.5775 42.4125 7.155 42.625 7.75 C43.08661261 10.51967567 42.42944945 11.64561267 41 14 C40.01 14 39.02 14 38 14 C38 14.99 38 15.98 38 17 C38.99 17.33 39.98 17.66 41 18 C40.34 18.66 39.68 19.32 39 20 C38.505 20.53625 38.01 21.0725 37.5 21.625 C36 23 36 23 34 23 C34 21.68 34 20.36 34 19 C32.02 19 30.04 19 28 19 C28 21.97 28 24.94 28 28 C25.03 28 22.06 28 19 28 C19 31.3 19 34.6 19 38 C15.7 38 12.4 38 9 38 C9 37.67 9 37.34 9 37 C11.97 37 14.94 37 18 37 C18 34.03 18 31.06 18 28 C15.03 28 12.06 28 9 28 C9 25.03 9 22.06 9 19 C6.03 19 3.06 19 0 19 C0 21.97 0 24.94 0 28 C-3.3 28 -6.6 28 -10 28 C-10 21.73 -10 15.46 -10 9 C-6.7 9 -3.4 9 0 9 C0 6.03 0 3.06 0 0 Z " fill="#40455D" transform="translate(126,164)"/>
<path d="M0 0 C0.74886475 0.00523682 1.49772949 0.01047363 2.26928711 0.01586914 C3.07817383 0.0190918 3.88706055 0.02231445 4.72045898 0.02563477 C5.5705957 0.03401367 6.42073242 0.04239258 7.29663086 0.05102539 C8.15063477 0.05553711 9.00463867 0.06004883 9.88452148 0.06469727 C12.00108749 0.07652166 14.11761771 0.0944577 16.23413086 0.11352539 C18.23413086 6.86352539 18.23413086 6.86352539 18.23413086 9.11352539 C20.87413086 9.11352539 23.51413086 9.11352539 26.23413086 9.11352539 C26.23413086 12.41352539 26.23413086 15.71352539 26.23413086 19.11352539 C19.96413086 19.11352539 13.69413086 19.11352539 7.23413086 19.11352539 C7.23413086 16.14352539 7.23413086 13.17352539 7.23413086 10.11352539 C4.26413086 10.11352539 1.29413086 10.11352539 -1.76586914 10.11352539 C-1.76586914 13.08352539 -1.76586914 16.05352539 -1.76586914 19.11352539 C0.87413086 19.11352539 3.51413086 19.11352539 6.23413086 19.11352539 C7.84138721 22.32803808 7.29161271 25.54965075 7.23413086 29.11352539 C4.26413086 29.11352539 1.29413086 29.11352539 -1.76586914 29.11352539 C-1.76586914 32.08352539 -1.76586914 35.05352539 -1.76586914 38.11352539 C-10.51586914 38.23852539 -10.51586914 38.23852539 -12.76586914 37.11352539 C-12.76586914 34.47352539 -12.76586914 31.83352539 -12.76586914 29.11352539 C-15.40586914 29.11352539 -18.04586914 29.11352539 -20.76586914 29.11352539 C-20.76586914 32.08352539 -20.76586914 35.05352539 -20.76586914 38.11352539 C-24.06586914 38.11352539 -27.36586914 38.11352539 -30.76586914 38.11352539 C-30.76586914 35.14352539 -30.76586914 32.17352539 -30.76586914 29.11352539 C-31.87961914 29.13415039 -32.99336914 29.15477539 -34.14086914 29.17602539 C-37.76586914 29.11352539 -37.76586914 29.11352539 -39.76586914 28.11352539 C-39.76586914 25.14352539 -39.76586914 22.17352539 -39.76586914 19.11352539 C-36.79586914 19.11352539 -33.82586914 19.11352539 -30.76586914 19.11352539 C-30.76586914 16.14352539 -30.76586914 13.17352539 -30.76586914 10.11352539 C-27.46586914 10.11352539 -24.16586914 10.11352539 -20.76586914 10.11352539 C-20.76586914 13.08352539 -20.76586914 16.05352539 -20.76586914 19.11352539 C-23.73586914 19.11352539 -26.70586914 19.11352539 -29.76586914 19.11352539 C-30.09586914 22.08352539 -30.42586914 25.05352539 -30.76586914 28.11352539 C-27.79586914 28.11352539 -24.82586914 28.11352539 -21.76586914 28.11352539 C-21.62149414 26.81415039 -21.47711914 25.51477539 -21.32836914 24.17602539 C-20.89086914 20.23852539 -20.89086914 20.23852539 -19.76586914 19.11352539 C-17.09528063 18.97237378 -14.44154676 19.07105432 -11.76586914 19.11352539 C-11.76586914 15.81352539 -11.76586914 12.51352539 -11.76586914 9.11352539 C-8.79586914 9.11352539 -5.82586914 9.11352539 -2.76586914 9.11352539 C-2.78649414 7.81415039 -2.80711914 6.51477539 -2.82836914 5.17602539 C-2.84986369 3.82186906 -2.83735113 2.46596456 -2.76586914 1.11352539 C-1.76586914 0.11352539 -1.76586914 0.11352539 0 0 Z " fill="#DAF1F7" transform="translate(193.765869140625,304.886474609375)"/>
<path d="M0 0 C3.46679688 0.04882812 3.46679688 0.04882812 6.93359375 0.09765625 C6.93359375 3.06765625 6.93359375 6.03765625 6.93359375 9.09765625 C9.90359375 9.09765625 12.87359375 9.09765625 15.93359375 9.09765625 C15.93359375 6.12765625 15.93359375 3.15765625 15.93359375 0.09765625 C19.23359375 0.09765625 22.53359375 0.09765625 25.93359375 0.09765625 C27.43180434 3.46863008 27.93359375 5.30207744 27.93359375 9.09765625 C29.63515625 9.06671875 29.63515625 9.06671875 31.37109375 9.03515625 C34.93359375 9.09765625 34.93359375 9.09765625 35.93359375 10.09765625 C36.07474536 12.76824476 35.97606482 15.42197863 35.93359375 18.09765625 C38.57359375 18.09765625 41.21359375 18.09765625 43.93359375 18.09765625 C43.91296875 16.79828125 43.89234375 15.49890625 43.87109375 14.16015625 C43.84959921 12.80599992 43.86211176 11.45009542 43.93359375 10.09765625 C44.93359375 9.09765625 44.93359375 9.09765625 47 9 C48.23556641 9.01740234 48.23556641 9.01740234 49.49609375 9.03515625 C50.32238281 9.04417969 51.14867187 9.05320312 52 9.0625 C52.63808594 9.07410156 53.27617187 9.08570313 53.93359375 9.09765625 C55.55906576 12.34860027 54.84455691 15.69719073 53.93359375 19.09765625 C52.05859375 21.09765625 52.05859375 21.09765625 49.93359375 22.09765625 C48.94359375 22.09765625 47.95359375 22.09765625 46.93359375 22.09765625 C46.78921875 23.23203125 46.64484375 24.36640625 46.49609375 25.53515625 C45.93359375 29.09765625 45.93359375 29.09765625 44.93359375 30.09765625 C37.41120569 30.33646222 37.41120569 30.33646222 34.93359375 29.09765625 C34.51953125 27.03125 34.51953125 27.03125 34.30859375 24.53515625 C34.23382813 23.70886719 34.1590625 22.88257813 34.08203125 22.03125 C34.03304687 21.39316406 33.9840625 20.75507813 33.93359375 20.09765625 C31.29359375 20.09765625 28.65359375 20.09765625 25.93359375 20.09765625 C25.93359375 23.39765625 25.93359375 26.69765625 25.93359375 30.09765625 C18.18359375 29.22265625 18.18359375 29.22265625 15.93359375 28.09765625 C15.34003761 25.44905198 15.19150106 22.80568303 14.93359375 20.09765625 C13.98484375 20.11828125 13.03609375 20.13890625 12.05859375 20.16015625 C8.93359375 20.09765625 8.93359375 20.09765625 6.93359375 19.09765625 C6.93359375 16.12765625 6.93359375 13.15765625 6.93359375 10.09765625 C3.63359375 10.09765625 0.33359375 10.09765625 -3.06640625 10.09765625 C-3.1640625 3.1640625 -3.1640625 3.1640625 -3.06640625 1.09765625 C-2.06640625 0.09765625 -2.06640625 0.09765625 0 0 Z " fill="#E4F6FA" transform="translate(81.06640625,304.90234375)"/>
<path d="M0 0 C6.27 0 12.54 0 19 0 C19 2.97 19 5.94 19 9 C31.54 9 44.08 9 57 9 C57 6.36 57 3.72 57 1 C62.94 1 68.88 1 75 1 C75 3.64 75 6.28 75 9 C72.03 9 69.06 9 66 9 C66 12.3 66 15.6 66 19 C63.03 19 60.06 19 57 19 C57 21.97 57 24.94 57 28 C53.7 28 50.4 28 47 28 C47.33 27.34 47.66 26.68 48 26 C47.10836423 23.88316159 47.10836423 23.88316159 46 22 C45.34 22 44.68 22 44 22 C43.505 23.485 43.505 23.485 43 25 C41.4375 23.75 41.4375 23.75 40 22 C40.3125 19.8125 40.3125 19.8125 41 18 C38.525 17.01 38.525 17.01 36 16 C35.505 16.495 35.505 16.495 35 17 C30.76685233 17.23961213 27.63263511 17.32488647 24 15 C24 13.68 24 12.36 24 11 C23.01 11.66 22.02 12.32 21 13 C20.67 14.65 20.34 16.3 20 18 C25.94 18 31.88 18 38 18 C38 18.33 38 18.66 38 19 C31.73 19 25.46 19 19 19 C19 16.03 19 13.06 19 10 C12.73 10 6.46 10 0 10 C0 6.7 0 3.4 0 0 Z " fill="#42485F" transform="translate(31,154)"/>
<path d="M0 0 C0.33 0 0.66 0 1 0 C1 12.54 1 25.08 1 38 C-5.27 38 -11.54 38 -18 38 C-18 40.97 -18 43.94 -18 47 C-36.81 47 -55.62 47 -75 47 C-75 44.03 -75 41.06 -75 38 C-77.97 38 -80.94 38 -84 38 C-84 37.67 -84 37.34 -84 37 C-62.55 37 -41.1 37 -19 37 C-19 34.03 -19 31.06 -19 28 C-12.73 28 -6.46 28 0 28 C0 18.76 0 9.52 0 0 Z " fill="#727483" transform="translate(191,249)"/>
<path d="M0 0 C21.78 0 43.56 0 66 0 C66 2.97 66 5.94 66 9 C69.3 9 72.6 9 76 9 C76.09765625 15.93359375 76.09765625 15.93359375 76 18 C73.84988047 20.15011953 69.10202202 19.18520645 66.125 19.1875 C65.29613281 19.19974609 64.46726562 19.21199219 63.61328125 19.22460938 C62.41638672 19.22750977 62.41638672 19.22750977 61.1953125 19.23046875 C60.09727295 19.23663208 60.09727295 19.23663208 58.97705078 19.24291992 C57 19 57 19 54 17 C54.99 17 55.98 17 57 17 C57 14.36 57 11.72 57 9 C56.30064835 9.00222061 55.60129669 9.00444122 54.88075256 9.00672913 C48.30295079 9.0267328 41.72515746 9.04197452 35.14733219 9.05181217 C31.76528187 9.05703975 28.3832566 9.06413511 25.0012207 9.07543945 C21.11670223 9.08834267 17.23219403 9.09322924 13.34765625 9.09765625 C12.12788589 9.10281754 10.90811554 9.10797882 9.65138245 9.11329651 C7.96975258 9.11340981 7.96975258 9.11340981 6.25415039 9.11352539 C5.26153702 9.115746 4.26892365 9.11796661 3.24623108 9.12025452 C1 9 1 9 0 8 C0 5.36 0 2.72 0 0 Z " fill="#D1EFFA" transform="translate(116,117)"/>
<path d="M0 0 C2.03125 0.0859375 2.03125 0.0859375 4.5 0.375 C5.3146875 0.46523437 6.129375 0.55546875 6.96875 0.6484375 C9 1 9 1 10 2 C10.45459858 4.65463121 10.70243238 7.32189138 11 10 C13.42919865 10.13440778 13.42919865 10.13440778 16 9 C17.41288147 6.38948072 18.135305 3.86714656 19 1 C21.97 1 24.94 1 28 1 C28 4.3 28 7.6 28 11 C32.455 10.505 32.455 10.505 37 10 C36.979375 8.700625 36.95875 7.40125 36.9375 6.0625 C36.91600546 4.70834367 36.92851801 3.35243917 37 2 C38 1 38 1 40.28515625 0.90234375 C42.85677083 0.93489583 45.42838542 0.96744792 48 1 C48 4.3 48 7.6 48 11 C44.7 11 41.4 11 38 11 C38 14.3 38 17.6 38 21 C35.23382437 22.38308781 32.98982 22.11210196 29.8984375 22.09765625 C28.68671875 22.09443359 27.475 22.09121094 26.2265625 22.08789062 C24.95554688 22.07951172 23.68453125 22.07113281 22.375 22.0625 C21.09625 22.05798828 19.8175 22.05347656 18.5 22.04882812 C15.33328708 22.03701203 12.16666644 22.02053815 9 22 C7.8422494 18.52674819 7.93133348 15.63932552 8 12 C5.69 12 3.38 12 1 12 C1.020625 13.299375 1.04125 14.59875 1.0625 15.9375 C1.08399454 17.29165633 1.07148199 18.64756083 1 20 C0 21 0 21 -2.28515625 21.09765625 C-3.65994141 21.08025391 -3.65994141 21.08025391 -5.0625 21.0625 C-5.98160156 21.05347656 -6.90070313 21.04445312 -7.84765625 21.03515625 C-8.55792969 21.02355469 -9.26820313 21.01195312 -10 21 C-10.02688151 19.35425434 -10.04634123 17.70838587 -10.0625 16.0625 C-10.07410156 15.14597656 -10.08570313 14.22945312 -10.09765625 13.28515625 C-10 11 -10 11 -9 10 C-6.32941149 9.85884839 -3.67567762 9.95752893 -1 10 C-1.01160156 9.36191406 -1.02320313 8.72382813 -1.03515625 8.06640625 C-1.04417969 7.24011719 -1.05320313 6.41382813 -1.0625 5.5625 C-1.07410156 4.73878906 -1.08570313 3.91507813 -1.09765625 3.06640625 C-1 1 -1 1 0 0 Z " fill="#DAF2F9" transform="translate(220,228)"/>
<path d="M0 0 C6.6 0 13.2 0 20 0 C20 3.3 20 6.6 20 10 C16.7 10 13.4 10 10 10 C10 12.97 10 15.94 10 19 C7.03 19 4.06 19 1 19 C1 21.97 1 24.94 1 28 C-2.3 28 -5.6 28 -9 28 C-9 31.3 -9 34.6 -9 38 C-11.97 38 -14.94 38 -18 38 C-18 34.7 -18 31.4 -18 28 C-21.3 28 -24.6 28 -28 28 C-28 25.03 -28 22.06 -28 19 C-24.7 19 -21.4 19 -18 19 C-18 16.03 -18 13.06 -18 10 C-15.03 10 -12.06 10 -9 10 C-9 12.97 -9 15.94 -9 19 C-6.03 19 -3.06 19 0 19 C0 12.73 0 6.46 0 0 Z " fill="#ECEDEF" transform="translate(314,154)"/>
<path d="M0 0 C18.81 0 37.62 0 57 0 C57 6.27 57 12.54 57 19 C60.3 19 63.6 19 67 19 C67 22.3 67 25.6 67 29 C63.7 29 60.4 29 57 29 C57 26.03 57 23.06 57 20 C41.49 20 25.98 20 10 20 C10 19.34 10 18.68 10 18 C25.18 18 40.36 18 56 18 C56 12.39 56 6.78 56 1 C37.85 1 19.7 1 1 1 C1 7.27 1 13.54 1 20 C-1.97 20 -4.94 20 -8 20 C-8 22.97 -8 25.94 -8 29 C-11.3 29 -14.6 29 -18 29 C-18 34.94 -18 40.88 -18 47 C-15.03 47 -12.06 47 -9 47 C-9 44.03 -9 41.06 -9 38 C-6.03 38 -3.06 38 0 38 C0 34.7 0 31.4 0 28 C3.3 28 6.6 28 10 28 C10 28.33 10 28.66 10 29 C7.03 29 4.06 29 1 29 C1 32.3 1 35.6 1 39 C-1.97 39 -4.94 39 -8 39 C-8 41.97 -8 44.94 -8 48 C-11.63 48 -15.26 48 -19 48 C-19 41.73 -19 35.46 -19 29 C-21.64 29 -24.28 29 -27 29 C-27 35.27 -27 41.54 -27 48 C-30.63 48 -34.26 48 -38 48 C-38 41.4 -38 34.8 -38 28 C-34.7 28 -31.4 28 -28 28 C-28 25.03 -28 22.06 -28 19 C-24.7 19 -21.4 19 -18 19 C-18 21.97 -18 24.94 -18 28 C-15.03 28 -12.06 28 -9 28 C-9 25.03 -9 22.06 -9 19 C-6.03 19 -3.06 19 0 19 C0 12.73 0 6.46 0 0 Z " fill="#9D9FAC" transform="translate(295,50)"/>
<path d="M0 0 C3.3 0 6.6 0 10 0 C10 2.97 10 5.94 10 9 C12.97 9 15.94 9 19 9 C19.33 21.54 19.66 34.08 20 47 C15.545 47.495 15.545 47.495 11 48 C10.67 50.97 10.34 53.94 10 57 C7.03 57 4.06 57 1 57 C1 59.97 1 62.94 1 66 C-2.3 66 -5.6 66 -9 66 C-9 63.03 -9 60.06 -9 57 C-6.36 56.67 -3.72 56.34 -1 56 C-0.67 52.7 -0.34 49.4 0 46 C2.97 46 5.94 46 9 46 C9 35.11 9 24.22 9 13 C8.34 12.67 7.68 12.34 7 12 C7.66 12 8.32 12 9 12 C9 11.34 9 10.68 9 10 C6.03 10 3.06 10 0 10 C0 6.7 0 3.4 0 0 Z " fill="#3F5976" transform="translate(163,192)"/>
<path d="M0 0 C0 3.63 0 7.26 0 11 C2.64 11 5.28 11 8 11 C8 7.7 8 4.4 8 1 C15.71484375 0.90234375 15.71484375 0.90234375 18 1 C19 2 19 2 19.09765625 4.06640625 C19.06510417 6.37760417 19.03255208 8.68880208 19 11 C21.97 11 24.94 11 28 11 C28 14.3 28 17.6 28 21 C24.30458414 21.95024979 21.69541586 21.95024979 18 21 C18 18.03 18 15.06 18 12 C15.03 12 12.06 12 9 12 C9 14.97 9 17.94 9 21 C8.01 21.33 7.02 21.66 6 22 C6 22.66 6 23.32 6 24 C1.25 22.125 1.25 22.125 -1 21 C-1 18.03 -1 15.06 -1 12 C-3.64 12.33 -6.28 12.66 -9 13 C-9.33 15.64 -9.66 18.28 -10 21 C-13.3 21 -16.6 21 -20 21 C-20 18.03 -20 15.06 -20 12 C-23.3 12 -26.6 12 -30 12 C-30 8.7 -30 5.4 -30 2 C-22.28515625 1.90234375 -22.28515625 1.90234375 -20 2 C-19 3 -19 3 -18.90234375 4.84765625 C-18.95117188 7.92382812 -18.95117188 7.92382812 -19 11 C-16.36 11 -13.72 11 -11 11 C-11.01160156 10.36191406 -11.02320313 9.72382813 -11.03515625 9.06640625 C-11.04417969 8.24011719 -11.05320313 7.41382813 -11.0625 6.5625 C-11.07410156 5.73878906 -11.08570313 4.91507812 -11.09765625 4.06640625 C-11 2 -11 2 -10 1 C-8.5063392 0.76733361 -7.00421824 0.58744581 -5.5 0.4375 C-4.6853125 0.35371094 -3.870625 0.26992188 -3.03125 0.18359375 C-1 0 -1 0 0 0 Z " fill="#DEF4F9" transform="translate(249,256)"/>
<path d="M0 0 C0.33 0 0.66 0 1 0 C1 2.97 1 5.94 1 9 C3.97 9 6.94 9 10 9 C10 12.3 10 15.6 10 19 C7.03 19 4.06 19 1 19 C1 21.97 1 24.94 1 28 C-1.97 28 -4.94 28 -8 28 C-8 31.3 -8 34.6 -8 38 C-20.54 38 -33.08 38 -46 38 C-46 37.67 -46 37.34 -46 37 C-33.79 37 -21.58 37 -9 37 C-9 34.03 -9 31.06 -9 28 C-18.24 28 -27.48 28 -37 28 C-37 25.03 -37 22.06 -37 19 C-27.76 18.67 -18.52 18.34 -9 18 C-9 15.03 -9 12.06 -9 9 C-6.03 9 -3.06 9 0 9 C0 6.03 0 3.06 0 0 Z " fill="#627E94" transform="translate(342,211)"/>
<path d="M0 0 C15.51 0 31.02 0 47 0 C47 2.97 47 5.94 47 9 C34.79 9 22.58 9 10 9 C10 11.97 10 14.94 10 18 C3.73 18 -2.54 18 -9 18 C-9 15.03 -9 12.06 -9 9 C-6.03 9 -3.06 9 0 9 C0 6.03 0 3.06 0 0 Z " fill="#D1F0FB" transform="translate(305,70)"/>
<path d="M0 0 C6.27 0 12.54 0 19 0 C19 2.97 19 5.94 19 9 C31.21 9 43.42 9 56 9 C56 11.97 56 14.94 56 18 C40.82 18 25.64 18 10 18 C10 15.03 10 12.06 10 9 C6.7 9 3.4 9 0 9 C0 6.03 0 3.06 0 0 Z " fill="#6AB6E4" transform="translate(239,315)"/>
<path d="M0 0 C18.48 0 36.96 0 56 0 C56 2.97 56 5.94 56 9 C37.52 9 19.04 9 0 9 C0 6.03 0 3.06 0 0 Z " fill="#393D53" transform="translate(305,268)"/>
<path d="M0 0 C0.66 0.33 1.32 0.66 2 1 C2.99 0.67 3.98 0.34 5 0 C6.56118428 -0.06740865 8.1250252 -0.08514456 9.6875 -0.0625 C11.110625 -0.041875 12.53375 -0.02125 14 0 C14 2.97 14 5.94 14 9 C16.97 9 19.94 9 23 9 C23 11.97 23 14.94 23 18 C20.03 18 17.06 18 14 18 C13.67 20.97 13.34 23.94 13 27 C8.38 27 3.76 27 -1 27 C-2.20029908 24.59940183 -2.11459743 23.10639351 -2.09765625 20.4296875 C-2.09443359 19.53378906 -2.09121094 18.63789063 -2.08789062 17.71484375 C-2.07951172 16.77769531 -2.07113281 15.84054688 -2.0625 14.875 C-2.05798828 13.93011719 -2.05347656 12.98523438 -2.04882812 12.01171875 C-2.03702357 9.67441613 -2.02055759 7.33723939 -2 5 C-1.34 5 -0.68 5 0 5 C0 3.35 0 1.7 0 0 Z " fill="#CEF0FA" transform="translate(357,155)"/>
<path d="M0 0 C3.3 0 6.6 0 10 0 C10 2.97 10 5.94 10 9 C12.97 9 15.94 9 19 9 C19 9.33 19 9.66 19 10 C15.7 10 12.4 10 9 10 C9 7.03 9 4.06 9 1 C6.36 1 3.72 1 1 1 C1 16.18 1 31.36 1 47 C3.97 47 6.94 47 10 47 C10 44.03 10 41.06 10 38 C12.97 38 15.94 38 19 38 C19.33 40.97 19.66 43.94 20 47 C25.94 47.33 31.88 47.66 38 48 C38 50.97 38 53.94 38 57 C32.06 57 26.12 57 20 57 C20 59.97 20 62.94 20 66 C31.88 66 43.76 66 56 66 C56 63.03 56 60.06 56 57 C56.33 57 56.66 57 57 57 C57 60.3 57 63.6 57 67 C44.46 67 31.92 67 19 67 C19 63.7 19 60.4 19 57 C16.03 57 13.06 57 10 57 C10 54.03 10 51.06 10 48 C6.7 48 3.4 48 0 48 C0 32.16 0 16.32 0 0 Z " fill="#677388" transform="translate(116,201)"/>
<path d="M0 0 C8.91 0 17.82 0 27 0 C27 2.64 27 5.28 27 8 C24.36 8.33 21.72 8.66 19 9 C18.67 11.64 18.34 14.28 18 17 C8.76 17 -0.48 17 -10 17 C-10 14.69 -10 12.38 -10 10 C-6.7 10 -3.4 10 0 10 C0 6.7 0 3.4 0 0 Z " fill="#D2EFFB" transform="translate(258,372)"/>
<path d="M0 0 C2.97 0 5.94 0 9 0 C9 2.97 9 5.94 9 9 C11.97 9 14.94 9 18 9 C18 11.97 18 14.94 18 18 C15.03 18 12.06 18 9 18 C9 20.97 9 23.94 9 27 C6.03 27 3.06 27 0 27 C0 24.03 0 21.06 0 18 C-3.63 18 -7.26 18 -11 18 C-10.67 15.36 -10.34 12.72 -10 10 C-6.7 10 -3.4 10 0 10 C0 6.7 0 3.4 0 0 Z " fill="#F8F9FA" transform="translate(126,183)"/>
<path d="M0 0 C3.3 0 6.6 0 10 0 C10 2.97 10 5.94 10 9 C12.97 9 15.94 9 19 9 C19 9.33 19 9.66 19 10 C15.7 10 12.4 10 9 10 C9 7.03 9 4.06 9 1 C6.36 1 3.72 1 1 1 C1 3.97 1 6.94 1 10 C-20.78 10 -42.56 10 -65 10 C-65 15.94 -65 21.88 -65 28 C-33.98 28 -2.96 28 29 28 C29 31.3 29 34.6 29 38 C25.7 38 22.4 38 19 38 C19 35.03 19 32.06 19 29 C-8.72 29 -36.44 29 -65 29 C-65 31.97 -65 34.94 -65 38 C-68.3 38 -71.6 38 -75 38 C-75 34.7 -75 31.4 -75 28 C-72.03 28 -69.06 28 -66 28 C-66 21.73 -66 15.46 -66 9 C-44.22 9 -22.44 9 0 9 C0 6.03 0 3.06 0 0 Z " fill="#939BAB" transform="translate(163,88)"/>
<path d="M0 0 C6.27 0 12.54 0 19 0 C19 2.97 19 5.94 19 9 C37.48 9 55.96 9 75 9 C75 6.03 75 3.06 75 0 C75.33 0 75.66 0 76 0 C76 2.97 76 5.94 76 9 C84.91 9 93.82 9 103 9 C103 6.03 103 3.06 103 0 C103.33 0 103.66 0 104 0 C104 3.3 104 6.6 104 10 C94.76 10 85.52 10 76 10 C76 12.97 76 15.94 76 19 C75.67 19 75.34 19 75 19 C75 16.03 75 13.06 75 10 C50.25 10 25.5 10 0 10 C0 12.97 0 15.94 0 19 C-2.97 19 -5.94 19 -9 19 C-9 15.7 -9 12.4 -9 9 C-6.03 9 -3.06 9 0 9 C0 6.03 0 3.06 0 0 Z " fill="#999CA8" transform="translate(286,258)"/>
<path d="M0 0 C0.33 0 0.66 0 1 0 C1 2.97 1 5.94 1 9 C10.24 9 19.48 9 29 9 C29 12.3 29 15.6 29 19 C26.03 19 23.06 19 20 19 C20 21.97 20 24.94 20 28 C7.46 28 -5.08 28 -18 28 C-18 25.03 -18 22.06 -18 19 C-21.3 19 -24.6 19 -28 19 C-28 18.67 -28 18.34 -28 18 C-25.03 18 -22.06 18 -19 18 C-19 15.03 -19 12.06 -19 9 C-12.73 9 -6.46 9 0 9 C0 6.03 0 3.06 0 0 Z M1 10 C1 13.3 1 16.6 1 20 C-2.3 20 -5.6 20 -9 20 C-9 22.31 -9 24.62 -9 27 C0.24 27 9.48 27 19 27 C19.33 24.36 19.66 21.72 20 19 C22.64 18.67 25.28 18.34 28 18 C28 15.36 28 12.72 28 10 C19.09 10 10.18 10 1 10 Z " fill="#BBC9D8" transform="translate(257,362)"/>
<path d="M0 0 C18.15 0 36.3 0 55 0 C55 2.64 55 5.28 55 8 C50.38 8 45.76 8 41 8 C41 7.01 41 6.02 41 5 C31.76 5.33 22.52 5.66 13 6 C13 6.66 13 7.32 13 8 C8.71 8 4.42 8 0 8 C0 5.36 0 2.72 0 0 Z " fill="#373A52" transform="translate(117,287)"/>
<path d="M0 0 C5.94 0 11.88 0 18 0 C18.33 2.97 18.66 5.94 19 9 C21.31 9.66 23.62 10.32 26 11 C26.625 13.375 26.625 13.375 27 16 C25 18 25 18 21.5234375 18.1953125 C20.14049032 18.18201493 18.75761346 18.15816232 17.375 18.125 C16.31539062 18.11146484 16.31539062 18.11146484 15.234375 18.09765625 C13.48943902 18.07407603 11.74467705 18.03820461 10 18 C10 15.03 10 12.06 10 9 C6.7 9 3.4 9 0 9 C0 6.03 0 3.06 0 0 Z " fill="#D0F0F9" transform="translate(192,305)"/>
<path d="M0 0 C13.53 0 27.06 0 41 0 C38.8614515 2.1385485 37.86724686 2.42655063 35 3 C37.57213134 4.61949011 38.67669159 5.04408751 41.75 4.625 C42.86375 4.315625 42.86375 4.315625 44 4 C42.02 6.97 42.02 6.97 40 10 C39.505 9.01 39.505 9.01 39 8 C19.695 7.505 19.695 7.505 0 7 C0 4.69 0 2.38 0 0 Z " fill="#CFF1FD" transform="translate(296,127)"/>
<path d="M0 0 C18.48 0 36.96 0 56 0 C56 6.27 56 12.54 56 19 C59.3 19 62.6 19 66 19 C66 22.3 66 25.6 66 29 C62.7 29 59.4 29 56 29 C56 26.03 56 23.06 56 20 C40.49 20 24.98 20 9 20 C9 19.34 9 18.68 9 18 C24.18 18 39.36 18 55 18 C55 12.39 55 6.78 55 1 C36.85 1 18.7 1 0 1 C0 0.67 0 0.34 0 0 Z " fill="#6B7384" transform="translate(296,50)"/>
<path d="M0 0 C28.05 0 56.1 0 85 0 C85 2.97 85 5.94 85 9 C87.97 9 90.94 9 94 9 C94 12.3 94 15.6 94 19 C91.03 19 88.06 19 85 19 C85 16.03 85 13.06 85 10 C69.49 10 53.98 10 38 10 C38 9.67 38 9.34 38 9 C53.18 9 68.36 9 84 9 C84 6.36 84 3.72 84 1 C62.55 1 41.1 1 19 1 C19 3.97 19 6.94 19 10 C16.03 10 13.06 10 10 10 C10 12.97 10 15.94 10 19 C9.67 19 9.34 19 9 19 C9 15.7 9 12.4 9 9 C11.97 9 14.94 9 18 9 C18 6.36 18 3.72 18 1 C12.06 1 6.12 1 0 1 C0 0.67 0 0.34 0 0 Z " fill="#91A3B6" transform="translate(88,154)"/>
<path d="M0 0 C9.24 0 18.48 0 28 0 C28 2.97 28 5.94 28 9 C18.76 9 9.52 9 0 9 C0 6.03 0 3.06 0 0 Z " fill="#58708E" transform="translate(305,230)"/>
<path d="M0 0 C5.94 0 11.88 0 18 0 C18 2.97 18 5.94 18 9 C15.03 9 12.06 9 9 9 C9 12.3 9 15.6 9 19 C6.03 19 3.06 19 0 19 C0 12.73 0 6.46 0 0 Z " fill="#F6F7F9" transform="translate(145,173)"/>
<path d="M0 0 C5.94 0 11.88 0 18 0 C18 5.94 18 11.88 18 18 C15.03 18 12.06 18 9 18 C9 15.03 9 12.06 9 9 C6.03 9 3.06 9 0 9 C0 6.03 0 3.06 0 0 Z " fill="#66B8E6" transform="translate(287,306)"/>
<path d="M0 0 C0.74886475 0.00523682 1.49772949 0.01047363 2.26928711 0.01586914 C3.07817383 0.0190918 3.88706055 0.02231445 4.72045898 0.02563477 C5.5705957 0.03401367 6.42073242 0.04239258 7.29663086 0.05102539 C8.15063477 0.05553711 9.00463867 0.06004883 9.88452148 0.06469727 C12.00108749 0.07652166 14.11761771 0.0944577 16.23413086 0.11352539 C16.23413086 3.08352539 16.23413086 6.05352539 16.23413086 9.11352539 C10.29413086 9.11352539 4.35413086 9.11352539 -1.76586914 9.11352539 C-1.76586914 12.08352539 -1.76586914 15.05352539 -1.76586914 18.11352539 C10.11413086 18.11352539 21.99413086 18.11352539 34.23413086 18.11352539 C34.23413086 15.14352539 34.23413086 12.17352539 34.23413086 9.11352539 C34.56413086 9.11352539 34.89413086 9.11352539 35.23413086 9.11352539 C35.23413086 12.41352539 35.23413086 15.71352539 35.23413086 19.11352539 C22.69413086 19.11352539 10.15413086 19.11352539 -2.76586914 19.11352539 C-2.76586914 15.81352539 -2.76586914 12.51352539 -2.76586914 9.11352539 C-5.73586914 9.11352539 -8.70586914 9.11352539 -11.76586914 9.11352539 C-11.76586914 8.78352539 -11.76586914 8.45352539 -11.76586914 8.11352539 C-8.79586914 8.11352539 -5.82586914 8.11352539 -2.76586914 8.11352539 C-2.78649414 6.97915039 -2.80711914 5.84477539 -2.82836914 4.67602539 C-2.74943462 0.17675751 -2.74943462 0.17675751 0 0 Z " fill="#60748C" transform="translate(137.765869140625,248.886474609375)"/>
<path d="M0 0 C0.81559387 0.00424484 1.63118774 0.00848969 2.47149658 0.01286316 C5.06987884 0.0296216 7.66747819 0.06726778 10.265625 0.10546875 C12.02993669 0.12051929 13.79426058 0.13420705 15.55859375 0.14648438 C19.87790465 0.17951574 24.1966322 0.23127789 28.515625 0.29296875 C28.185625 2.27296875 27.855625 4.25296875 27.515625 6.29296875 C14.315625 6.29296875 1.115625 6.29296875 -12.484375 6.29296875 C-12.484375 3.29296875 -12.484375 3.29296875 -11.01464844 1.6237793 C-7.40328461 -0.27563639 -3.97821888 -0.0781024 0 0 Z " fill="#57B9F9" transform="translate(265.484375,324.70703125)"/>
<path d="M0 0 C5.94 0 11.88 0 18 0 C18 2.64 18 5.28 18 8 C15.03 8 12.06 8 9 8 C9 11.3 9 14.6 9 18 C6.03 18 3.06 18 0 18 C0 12.06 0 6.12 0 0 Z " fill="#F7F9FA" transform="translate(315,155)"/>
<path d="M0 0 C15.84 0 31.68 0 48 0 C48 2.97 48 5.94 48 9 C47.67 9 47.34 9 47 9 C47 6.36 47 3.72 47 1 C31.82 1 16.64 1 1 1 C1 3.31 1 5.62 1 8 C14.2 8 27.4 8 41 8 C40.67 11.3 40.34 14.6 40 18 C42.64 18 45.28 18 48 18 C48 18.33 48 18.66 48 19 C44.7 19 41.4 19 38 19 C38 15.7 38 12.4 38 9 C25.79 9 13.58 9 1 9 C1 12.3 1 15.6 1 19 C-2.3 19 -5.6 19 -9 19 C-9 15.7 -9 12.4 -9 9 C-6.03 9 -3.06 9 0 9 C0 6.03 0 3.06 0 0 Z " fill="#B4C6D9" transform="translate(295,126)"/>
<path d="M0 0 C5.94 0 11.88 0 18 0 C18 2.64 18 5.28 18 8 C10.25 8.125 10.25 8.125 8 7 C8 10.63 8 14.26 8 18 C5.125 18.125 5.125 18.125 2 18 C0 16 0 16 -0.1953125 12.3046875 C-0.1838709 10.82798332 -0.15789907 9.35138199 -0.125 7.875 C-0.08375 5.27625 -0.0425 2.6775 0 0 Z " fill="#D0F0F8" transform="translate(334,306)"/>
<path d="M0 0 C2.97 0 5.94 0 9 0 C9 3.3 9 6.6 9 10 C21.54 10 34.08 10 47 10 C47 12.97 47 15.94 47 19 C46.67 19 46.34 19 46 19 C46 16.36 46 13.72 46 11 C32.47 11.33 18.94 11.66 5 12 C4.505 10.515 4.505 10.515 4 9 C3.34 9.66 2.68 10.32 2 11 C-0.13870239 11.20254517 -0.13870239 11.20254517 -2.81689453 11.13525391 C-3.81778107 11.11508209 -4.8186676 11.09491028 -5.84988403 11.0741272 C-6.93325043 11.04193085 -8.01661682 11.0097345 -9.1328125 10.9765625 C-10.23978485 10.95153656 -11.3467572 10.92651062 -12.48727417 10.90072632 C-16.03348643 10.81835514 -19.57915591 10.72183122 -23.125 10.625 C-25.52471719 10.56677799 -27.92445685 10.50947436 -30.32421875 10.453125 C-36.21644826 10.31275091 -42.108293 10.16074623 -48 10 C-48 9.67 -48 9.34 -48 9 C-32.16 9 -16.32 9 0 9 C-0.495 8.01 -0.495 8.01 -1 7 C-1.66 7.33 -2.32 7.66 -3 8 C-4.4606285 5.35261084 -5 4.10551666 -5 1 C-3.68 1.33 -2.36 1.66 -1 2 C-0.67 1.34 -0.34 0.68 0 0 Z " fill="#454C62" transform="translate(343,116)"/>
<path d="M0 0 C0.7623999 -0.00451172 1.5247998 -0.00902344 2.31030273 -0.01367188 C7.81374091 0.00124091 7.81374091 0.00124091 8.9375 1.125 C8.9375 3.435 8.9375 5.745 8.9375 8.125 C-0.3025 8.125 -9.5425 8.125 -19.0625 8.125 C-19.0625 5.815 -19.0625 3.505 -19.0625 1.125 C-12.68717586 0.31543503 -6.41875277 0.01615627 0 0 Z " fill="#F9FCFB" transform="translate(267.0625,380.875)"/>
<path d="M0 0 C3.3 0 6.6 0 10 0 C10 2.97 10 5.94 10 9 C12.97 9 15.94 9 19 9 C19 16.26 19 23.52 19 31 C18.01 31.33 17.02 31.66 16 32 C15.67 26.06 15.34 20.12 15 14 C13.68 14 12.36 14 11 14 C11 19.94 11 25.88 11 32 C10.67 32 10.34 32 10 32 C10 24.74 10 17.48 10 10 C6.7 10 3.4 10 0 10 C0 6.7 0 3.4 0 0 Z " fill="#5C6D88" transform="translate(163,192)"/>
<path d="M0 0 C6.27 0 12.54 0 19 0 C19 3.3 19 6.6 19 10 C12.73 10 6.46 10 0 10 C0 6.7 0 3.4 0 0 Z " fill="#47495D" transform="translate(390,116)"/>
<path d="M0 0 C6.6 0 13.2 0 20 0 C20 0.99 20 1.98 20 3 C19.01 3 18.02 3 17 3 C17 3.66 17 4.32 17 5 C16.01 5.99 15.02 6.98 14 8 C26.54 8 39.08 8 52 8 C52 8.33 52 8.66 52 9 C34.84 9 17.68 9 0 9 C0 6.03 0 3.06 0 0 Z " fill="#343B52" transform="translate(107,145)"/>
<path d="M0 0 C0.33 0 0.66 0 1 0 C1 5.61 1 11.22 1 17 C1.66 16.67 2.32 16.34 3 16 C3.65772428 12.97065509 3.65772428 12.97065509 4 10 C4.33 10 4.66 10 5 10 C5.33 15.94 5.66 21.88 6 28 C4.02 28 2.04 28 0 28 C0 46.81 0 65.62 0 85 C-0.33 85 -0.66 85 -1 85 C-1 65.2 -1 45.4 -1 25 C-2.32 25.33 -3.64 25.66 -5 26 C-5.66 25.01 -6.32 24.02 -7 23 C-7.33 24.65 -7.66 26.3 -8 28 C-8.33 28 -8.66 28 -9 28 C-9 25.03 -9 22.06 -9 19 C-6.03 19 -3.06 19 0 19 C0 12.73 0 6.46 0 0 Z " fill="#4E4E63" transform="translate(69,173)"/>
<path d="M0 0 C0.33 0 0.66 0 1 0 C1 2.97 1 5.94 1 9 C6.94 9 12.88 9 19 9 C19 11.64 19 14.28 19 17 C18 18 18 18 16.23413086 18.11352539 C15.48526611 18.10828857 14.73640137 18.10305176 13.96484375 18.09765625 C12.87224243 18.09390991 12.87224243 18.09390991 11.75756836 18.09008789 C10.8269458 18.08098389 9.89632324 18.07187988 8.9375 18.0625 C4.5134375 18.0315625 4.5134375 18.0315625 0 18 C0 12.06 0 6.12 0 0 Z " fill="#CFF0F9" transform="translate(305,306)"/>
<path d="M0 0 C3 1 3 1 4.14794922 2.78662109 C5.026778 5.06956141 5.39628033 6.98375941 5.6328125 9.4140625 C5.71660156 10.25839844 5.80039063 11.10273438 5.88671875 11.97265625 C5.96535156 12.84792969 6.04398438 13.72320312 6.125 14.625 C6.21136719 15.47707031 6.29773438 16.32914063 6.38671875 17.20703125 C6.95336031 23.15227051 7.10075165 29.03006488 7 35 C6.67 35 6.34 35 6 35 C6 32.03 6 29.06 6 26 C3.03 26 0.06 26 -3 26 C-2.67 18.08 -2.34 10.16 -2 2 C-1.34 2 -0.68 2 0 2 C0 1.34 0 0.68 0 0 Z " fill="#5B7392" transform="translate(176,204)"/>
<path d="M0 0 C6.27 0 12.54 0 19 0 C19 2.97 19 5.94 19 9 C12.73 9 6.46 9 0 9 C0 6.03 0 3.06 0 0 Z " fill="#404256" transform="translate(286,258)"/>
<path d="M0 0 C2.97 0 5.94 0 9 0 C9 6.27 9 12.54 9 19 C6.03 19 3.06 19 0 19 C0 12.73 0 6.46 0 0 Z " fill="#5D7592" transform="translate(343,192)"/>
<path d="M0 0 C2.97 0 5.94 0 9 0 C9 6.27 9 12.54 9 19 C6.03 19 3.06 19 0 19 C0 12.73 0 6.46 0 0 Z " fill="#40425A" transform="translate(192,88)"/>
<path d="M0 0 C2.97 0 5.94 0 9 0 C9 2.97 9 5.94 9 9 C6.03 9 3.06 9 0 9 C0 11.97 0 14.94 0 18 C-2.97 18 -5.94 18 -9 18 C-9 15.03 -9 12.06 -9 9 C-6.36 8.67 -3.72 8.34 -1 8 C-0.67 5.36 -0.34 2.72 0 0 Z " fill="#D6F0F7" transform="translate(390,315)"/>
<path d="M0 0 C0.33 0 0.66 0 1 0 C1 2.64 1 5.28 1 8 C4.3 8 7.6 8 11 8 C11 10.97 11 13.94 11 17 C15.95 16.67 20.9 16.34 26 16 C27.15811388 13.05270463 27.15811388 13.05270463 27 10 C25.865625 9.855625 24.73125 9.71125 23.5625 9.5625 C20 9 20 9 19 8 C18.85884839 5.32941149 18.95752893 2.67567762 19 0 C19.33 0 19.66 0 20 0 C20.33 2.64 20.66 5.28 21 8 C23.64 8 26.28 8 29 8 C29 11.3 29 14.6 29 18 C22.73 18 16.46 18 10 18 C10 15.03 10 12.06 10 9 C7.03 9 4.06 9 1 9 C1.02320313 9.71285156 1.04640625 10.42570312 1.0703125 11.16015625 C1.17815674 16.88360394 0.92057311 21.59838814 -1 27 C-3.31 27 -5.62 27 -8 27 C-8 24.36 -8 21.72 -8 19 C-7.21625 18.855625 -6.4325 18.71125 -5.625 18.5625 C-3.03578982 18.12201075 -3.03578982 18.12201075 -1 17 C-0.67 11.39 -0.34 5.78 0 0 Z " fill="#E1F3F8" transform="translate(191,306)"/>
<path d="M0 0 C5.94 0 11.88 0 18 0 C18 2.97 18 5.94 18 9 C12.06 9 6.12 9 0 9 C0 6.03 0 3.06 0 0 Z " fill="#3C4257" transform="translate(239,371)"/>
<path d="M0 0 C5.94 0 11.88 0 18 0 C18 2.97 18 5.94 18 9 C12.06 9 6.12 9 0 9 C0 6.03 0 3.06 0 0 Z " fill="#373951" transform="translate(173,277)"/>
<path d="M0 0 C2.97 0 5.94 0 9 0 C9 5.94 9 11.88 9 18 C6.03 18 3.06 18 0 18 C0 12.06 0 6.12 0 0 Z " fill="#393B51" transform="translate(258,79)"/>
<path d="M0 0 C0.66 0 1.32 0 2 0 C2.12375 1.11375 2.2475 2.2275 2.375 3.375 C2.6465813 7.03103677 2.6465813 7.03103677 5 9 C5.66 8.34 6.32 7.68 7 7 C8 8 8 8 8.09765625 11.81640625 C8.09098089 13.39846682 8.07901875 14.98051159 8.0625 16.5625 C8.05798828 17.36880859 8.05347656 18.17511719 8.04882812 19.00585938 C8.03700518 21.00393756 8.01906914 23.00197783 8 25 C5.36 25 2.72 25 0 25 C0 16.75 0 8.5 0 0 Z " fill="#383B53" transform="translate(277,232)"/>
<path d="M0 0 C5.61 0 11.22 0 17 0 C17 2.64 17 5.28 17 8 C11.39 8 5.78 8 0 8 C0 5.36 0 2.72 0 0 Z " fill="#383A52" transform="translate(32,155)"/>
<path d="M0 0 C0.66 0 1.32 0 2 0 C2 0.66 2 1.32 2 2 C3.98 2 5.96 2 8 2 C8 6.95 8 11.9 8 17 C5.36 17 2.72 17 0 17 C0 11.39 0 5.78 0 0 Z " fill="#363A53" transform="translate(117,174)"/>
<path d="M0 0 C0.33 0 0.66 0 1 0 C1 4.29 1 8.58 1 13 C-1.64 13.33 -4.28 13.66 -7 14 C-7 16.31 -7 18.62 -7 21 C-4.36 21.33 -1.72 21.66 1 22 C1 22.66 1 23.32 1 24 C-1.97 24 -4.94 24 -8 24 C-9.60725635 20.78548731 -9.05748185 17.56387464 -9 14 C-11.68826864 14.11490912 -14.37513469 14.24163199 -17.0625 14.375 C-18.19075195 14.42140625 -18.19075195 14.42140625 -19.34179688 14.46875 C-24.17754373 14.71995763 -28.45682161 15.26703505 -33 17 C-34.53146378 20.00594421 -34.53146378 20.00594421 -35 23 C-35.33 23 -35.66 23 -36 23 C-36 19.7 -36 16.4 -36 13 C-27.09 12.67 -18.18 12.34 -9 12 C-8.67 9.69 -8.34 7.38 -8 5 C-7.67 5 -7.34 5 -7 5 C-7 7.31 -7 9.62 -7 12 C-4.69 12 -2.38 12 0 12 C0 8.04 0 4.08 0 0 Z " fill="#ECFBFC" transform="translate(332,311)"/>
<path d="M0 0 C2.47751402 1.85453028 2.96945822 2.79438191 3.43237305 5.91088867 C3.45855713 7.0682251 3.48474121 8.22556152 3.51171875 9.41796875 C3.54716797 10.67158203 3.58261719 11.92519531 3.61914062 13.21679688 C3.64169922 14.52712891 3.66425781 15.83746094 3.6875 17.1875 C3.72067666 18.52282013 3.75516666 19.85810832 3.79101562 21.19335938 C3.87362057 24.46215504 3.94273229 27.73067812 4 31 C3.01 30.34 2.02 29.68 1 29 C0.34 29.33 -0.32 29.66 -1 30 C-1.02902996 25.75001434 -1.04680887 21.50005419 -1.0625 17.25 C-1.07087891 16.0434375 -1.07925781 14.836875 -1.08789062 13.59375 C-1.09111328 12.43359375 -1.09433594 11.2734375 -1.09765625 10.078125 C-1.10289307 9.00981445 -1.10812988 7.94150391 -1.11352539 6.84082031 C-1.01503008 4.37610765 -0.71565464 2.34754533 0 0 Z " fill="#363952" transform="translate(395,172)"/>
<path d="M0 0 C1.64574566 -0.02688151 3.29161413 -0.04634123 4.9375 -0.0625 C5.85402344 -0.07410156 6.77054688 -0.08570313 7.71484375 -0.09765625 C10 0 10 0 11 1 C11.1328125 2.8125 11.1328125 2.8125 11.125 5 C11.12757813 5.721875 11.13015625 6.44375 11.1328125 7.1875 C11 9 11 9 10 10 C8.50261876 10.0979057 7.00057108 10.12974864 5.5 10.125 C4.6853125 10.12757813 3.870625 10.13015625 3.03125 10.1328125 C1 10 1 10 0 9 C-0.07179964 7.48071962 -0.08392007 5.95832518 -0.0625 4.4375 C-0.05347656 3.61121094 -0.04445313 2.78492188 -0.03515625 1.93359375 C-0.02355469 1.29550781 -0.01195313 0.65742188 0 0 Z " fill="#D9F2F5" transform="translate(125,352)"/>
<path d="M0 0 C1.35015859 4.05047576 0.62084998 6.7920168 0 11 C4.29 11 8.58 11 13 11 C13.33 9.68 13.66 8.36 14 7 C14.33 7.99 14.66 8.98 15 10 C15.66 10 16.32 10 17 10 C17 7.69 17 5.38 17 3 C14.03 3 11.06 3 8 3 C8 2.67 8 2.34 8 2 C11.3 2 14.6 2 18 2 C18 4.97 18 7.94 18 11 C17.34 11 16.68 11 16 11 C16 11.99 16 12.98 16 14 C14.68 14.33 13.36 14.66 12 15 C12 14.34 12 13.68 12 13 C11.34 13 10.68 13 10 13 C9.67 18.61 9.34 24.22 9 30 C11.97 30 14.94 30 18 30 C18 30.33 18 30.66 18 31 C14.7 31 11.4 31 8 31 C8 24.73 8 18.46 8 12 C5.03 12 2.06 12 -1 12 C-1.02698189 10.37509046 -1.04638757 8.75005367 -1.0625 7.125 C-1.07410156 6.22007812 -1.08570313 5.31515625 -1.09765625 4.3828125 C-1 2 -1 2 0 0 Z " fill="#60667C" transform="translate(372,152)"/>
<path d="M0 0 C3.3 0 6.6 0 10 0 C10 3.3 10 6.6 10 10 C6.7 10 3.4 10 0 10 C0 6.7 0 3.4 0 0 Z " fill="#D9F0F9" transform="translate(144,352)"/>
<path d="M0 0 C3.3 0 6.6 0 10 0 C10 2.97 10 5.94 10 9 C7.25 10.125 7.25 10.125 4 11 C2.68 10.34 1.36 9.68 0 9 C0 6.03 0 3.06 0 0 Z " fill="#D2F0F4" transform="translate(324,343)"/>
<path d="M0 0 C3.3 0 6.6 0 10 0 C10 3.3 10 6.6 10 10 C6.7 10 3.4 10 0 10 C0 6.7 0 3.4 0 0 Z " fill="#E0E0E6" transform="translate(305,201)"/>
<path d="M0 0 C3.3 0 6.6 0 10 0 C10 3.3 10 6.6 10 10 C6.7 10 3.4 10 0 10 C0 6.7 0 3.4 0 0 Z " fill="#E1E2E8" transform="translate(333,173)"/>
<path d="M0 0 C3.3 0 6.6 0 10 0 C10.09765625 6.93359375 10.09765625 6.93359375 10 9 C9 10 9 10 6.93359375 10.09765625 C3.46679688 10.04882812 3.46679688 10.04882812 0 10 C0 6.7 0 3.4 0 0 Z " fill="#D2EFF8" transform="translate(144,314)"/>
<path d="M0 0 C0.66 0 1.32 0 2 0 C2.19220663 4.23538316 2.37093557 8.47105371 2.53710938 12.70751953 C2.59556424 14.14908142 2.65772144 15.59049807 2.72363281 17.03173828 C2.81765355 19.10161905 2.89841315 21.17165438 2.9765625 23.2421875 C3.05511475 25.11173096 3.05511475 25.11173096 3.13525391 27.01904297 C3 30 3 30 1 32 C-1.3329614 32.04166002 -3.6670386 32.04166002 -6 32 C-6.99 32.495 -6.99 32.495 -8 33 C-8.65555119 35.52733235 -8.65555119 35.52733235 -9 38 C-6.03 38 -3.06 38 0 38 C0 38.33 0 38.66 0 39 C-3.3 39 -6.6 39 -10 39 C-10 36.03 -10 33.06 -10 30 C-6.7 30 -3.4 30 0 30 C0 20.1 0 10.2 0 0 Z " fill="#424457" transform="translate(60,219)"/>
<path d="M0 0 C3.3 0 6.6 0 10 0 C10.09765625 6.93359375 10.09765625 6.93359375 10 9 C9 10 9 10 6.93359375 10.09765625 C3.46679688 10.04882812 3.46679688 10.04882812 0 10 C0 6.7 0 3.4 0 0 Z " fill="#DEE0E6" transform="translate(135,220)"/>
<path d="M0 0 C15.18 0 30.36 0 46 0 C46 0.66 46 1.32 46 2 C43.13496092 2.82548591 40.66657936 3.10240727 37.69042969 3.02172852 C36.84986023 3.00163223 36.00929077 2.98153595 35.14324951 2.96083069 C34.24519592 2.93379562 33.34714233 2.90676056 32.421875 2.87890625 C31.03201385 2.84348976 31.03201385 2.84348976 29.61407471 2.80735779 C26.65922107 2.73088117 23.70464013 2.64678793 20.75 2.5625 C18.74480494 2.5092633 16.73959663 2.45652301 14.734375 2.40429688 C9.8227445 2.27528764 4.91134478 2.13944779 0 2 C0 1.34 0 0.68 0 0 Z " fill="#E8FDFE" transform="translate(249,334)"/>
<path d="M0 0 C3.3 0 6.6 0 10 0 C10 2.97 10 5.94 10 9 C6.7 9 3.4 9 0 9 C0 6.03 0 3.06 0 0 Z " fill="#FAFAFD" transform="translate(163,192)"/>
<path d="M0 0 C4.62 0 9.24 0 14 0 C13.67 1.65 13.34 3.3 13 5 C13 5.33 13 5.66 13 6 C13 7.32 13 8.64 13 10 C12.01 10.33 11.02 10.66 10 11 C10 9.68 10 8.36 10 7 C9.01 7 8.02 7 7 7 C7 6.34 7 5.68 7 5 C4.69 5 2.38 5 0 5 C0 3.35 0 1.7 0 0 Z " fill="#5BB8FC" transform="translate(241,317)"/>
<path d="M0 0 C2.97 0 5.94 0 9 0 C9.33 2.97 9.66 5.94 10 9 C6.7 9 3.4 9 0 9 C0 6.03 0 3.06 0 0 Z " fill="#D6EEF6" transform="translate(390,296)"/>
<path d="M0 0 C2.97 0 5.94 0 9 0 C9 2.97 9 5.94 9 9 C6.03 9 3.06 9 0 9 C0 6.03 0 3.06 0 0 Z " fill="#D5EFF6" transform="translate(352,315)"/>
<path d="M0 0 C2.97 0 5.94 0 9 0 C9 2.97 9 5.94 9 9 C6.03 9 3.06 9 0 9 C0 6.03 0 3.06 0 0 Z " fill="#D5F0F7" transform="translate(79,305)"/>
<path d="M0 0 C2.97 0 5.94 0 9 0 C9 2.97 9 5.94 9 9 C6.03 9 3.06 9 0 9 C0 6.03 0 3.06 0 0 Z " fill="#47485C" transform="translate(277,268)"/>
<path d="M0 0 C2.97 0 5.94 0 9 0 C9 2.97 9 5.94 9 9 C6.03 9 3.06 9 0 9 C0 6.03 0 3.06 0 0 Z " fill="#7FD6E4" transform="translate(154,249)"/>
<path d="M0 0 C2.97 0 5.94 0 9 0 C9 2.97 9 5.94 9 9 C6.03 9 3.06 9 0 9 C0 6.03 0 3.06 0 0 Z " fill="#82CFE1" transform="translate(324,230)"/>
<path d="M0 0 C2.97 0 5.94 0 9 0 C9 2.97 9 5.94 9 9 C6.03 9 3.06 9 0 9 C0 6.03 0 3.06 0 0 Z " fill="#83D1DF" transform="translate(173,230)"/>
<path d="M0 0 C2.97 0 5.94 0 9 0 C9 2.97 9 5.94 9 9 C6.03 9 3.06 9 0 9 C0 6.03 0 3.06 0 0 Z " fill="#7BE0EB" transform="translate(343,211)"/>
<path d="M0 0 C2.97 0 5.94 0 9 0 C9 2.97 9 5.94 9 9 C6.03 9 3.06 9 0 9 C0 6.03 0 3.06 0 0 Z " fill="#D3D4E3" transform="translate(173,164)"/>
<path d="M0 0 C2.97 0 5.94 0 9 0 C9 2.97 9 5.94 9 9 C6.03 9 3.06 9 0 9 C0 6.03 0 3.06 0 0 Z " fill="#3F3F53" transform="translate(88,117)"/>
<path d="M0 0 C2.97 0 5.94 0 9 0 C9 2.97 9 5.94 9 9 C2.84765625 9.09765625 2.84765625 9.09765625 1 9 C0 8 0 8 -0.09765625 6.15234375 C-0.06510417 4.1015625 -0.03255208 2.05078125 0 0 Z " fill="#F4FEFC" transform="translate(343,315)"/>
<path d="M0 0 C2.97 0 5.94 0 9 0 C9.09765625 6.15234375 9.09765625 6.15234375 9 8 C8 9 8 9 6.15234375 9.09765625 C4.1015625 9.06510417 2.05078125 9.03255208 0 9 C0 6.03 0 3.06 0 0 Z " fill="#D6EFF6" transform="translate(88,315)"/>
<path d="M0 0 C2.97 0 5.94 0 9 0 C9.09765625 6.15234375 9.09765625 6.15234375 9 8 C8 9 8 9 6.15234375 9.09765625 C4.1015625 9.06510417 2.05078125 9.03255208 0 9 C0 6.03 0 3.06 0 0 Z " fill="#CFF1F8" transform="translate(324,296)"/>
<path d="M0 0 C0 3.3 0 6.6 0 10 C-2.97 9.67 -5.94 9.34 -9 9 C-9 6.36 -9 3.72 -9 1 C-5.72921858 0.03087958 -3.60964568 0 0 0 Z " fill="#CDEAF3" transform="translate(277,267)"/>
<path d="M0 0 C2.97 0.33 5.94 0.66 9 1 C9 3.64 9 6.28 9 9 C6.03 9 3.06 9 0 9 C0 6.03 0 3.06 0 0 Z " fill="#363E59" transform="translate(126,248)"/>
<path d="M0 0 C2.64 0 5.28 0 8 0 C8 2.97 8 5.94 8 9 C5.36 9 2.72 9 0 9 C0 6.03 0 3.06 0 0 Z " fill="#D3EFF5" transform="translate(249,268)"/>
<path d="M0 0 C2.97 0 5.94 0 9 0 C9 2.64 9 5.28 9 8 C6.03 8 3.06 8 0 8 C0 5.36 0 2.72 0 0 Z " fill="#D4EEF5" transform="translate(258,259)"/>
<path d="M0 0 C2.64 0 5.28 0 8 0 C8 2.97 8 5.94 8 9 C5.36 9 2.72 9 0 9 C0 6.03 0 3.06 0 0 Z " fill="#6BAEE6" transform="translate(164,239)"/>
<path d="M0 0 C2.97 0 5.94 0 9 0 C9 2.64 9 5.28 9 8 C6.03 8 3.06 8 0 8 C0 5.36 0 2.72 0 0 Z " fill="#D3EFF5" transform="translate(258,230)"/>
<path d="M0 0 C2.64 0 5.28 0 8 0 C8 2.97 8 5.94 8 9 C5.36 9 2.72 9 0 9 C0 6.03 0 3.06 0 0 Z " fill="#D5F0F4" transform="translate(221,230)"/>
<path d="M0 0 C2.97 0 5.94 0 9 0 C9 2.64 9 5.28 9 8 C6.03 8 3.06 8 0 8 C0 5.36 0 2.72 0 0 Z " fill="#323B52" transform="translate(343,221)"/>
<path d="M0 0 C2.97 0 5.94 0 9 0 C9 2.64 9 5.28 9 8 C6.03 8 3.06 8 0 8 C0 5.36 0 2.72 0 0 Z " fill="#5B6E8D" transform="translate(296,221)"/>
<path d="M0 0 C2.64 0 5.28 0 8 0 C8 2.97 8 5.94 8 9 C5.36 9 2.72 9 0 9 C0 6.03 0 3.06 0 0 Z " fill="#3A3F56" transform="translate(183,117)"/>
<path d="M0 0 C2.97 0 5.94 0 9 0 C9 2.64 9 5.28 9 8 C6.03 8 3.06 8 0 8 C0 5.36 0 2.72 0 0 Z " fill="#303241" transform="translate(352,70)"/>
<path d="M0 0 C1.134375 0.020625 2.26875 0.04125 3.4375 0.0625 C3.4375 3.0325 3.4375 6.0025 3.4375 9.0625 C0.7975 9.0625 -1.8425 9.0625 -4.5625 9.0625 C-4.66015625 2.91015625 -4.66015625 2.91015625 -4.5625 1.0625 C-3.5625 0.0625 -3.5625 0.0625 0 0 Z " fill="#D2F0F7" transform="translate(130.5625,314.9375)"/>
<path d="M0 0 C2.33294775 -0.04241723 4.66702567 -0.04092937 7 0 C8 1 8 1 8.09765625 2.84765625 C8.04882812 5.92382812 8.04882812 5.92382812 8 9 C5.36 9 2.72 9 0 9 C0 6.03 0 3.06 0 0 Z " fill="#D1F0F6" transform="translate(211,239)"/>
<path d="M0 0 C0.33 0 0.66 0 1 0 C1 2.64 1 5.28 1 8 C16.345 7.505 16.345 7.505 32 7 C32 6.34 32 5.68 32 5 C32.61875 4.731875 33.2375 4.46375 33.875 4.1875 C36.2995233 3.04443152 36.2995233 3.04443152 38 0 C38 2.97 38 5.94 38 9 C25.46 9 12.92 9 0 9 C0 6.03 0 3.06 0 0 Z " fill="#E1E1EC" transform="translate(352,117)"/>
<path d="M0 0 C0.33 0 0.66 0 1 0 C1.33 1.65 1.66 3.3 2 5 C20.48 5.33 38.96 5.66 58 6 C58 6.33 58 6.66 58 7 C57.10464035 7.0154612 57.10464035 7.0154612 56.19119263 7.03123474 C49.99469771 7.13917388 43.79835193 7.25378188 37.60205078 7.37231445 C35.28762931 7.41570376 32.973175 7.45737584 30.65869141 7.49731445 C27.33746427 7.55492032 24.01640308 7.61864251 20.6953125 7.68359375 C19.13588425 7.70866249 19.13588425 7.70866249 17.54495239 7.73423767 C16.58410736 7.75418289 15.62326233 7.77412811 14.63330078 7.79467773 C13.78502716 7.81022202 12.93675354 7.8257663 12.06277466 7.84178162 C9.93681695 7.87429958 9.93681695 7.87429958 8 9 C6.0546875 8.44140625 6.0546875 8.44140625 3.875 7.5625 C3.15054688 7.27503906 2.42609375 6.98757812 1.6796875 6.69140625 C1.12539062 6.46324219 0.57109375 6.23507813 0 6 C0 4.02 0 2.04 0 0 Z " fill="#EAFCFE" transform="translate(115,120)"/>
<path d="M0 0 C3.96 0 7.92 0 12 0 C12 2.31 12 4.62 12 7 C8.7 7.33 5.4 7.66 2 8 C1.855625 7.05125 1.71125 6.1025 1.5625 5.125 C1.17064601 2.1065506 1.17064601 2.1065506 0 0 Z " fill="#363A51" transform="translate(396,165)"/>
<path d="M0 0 C3.375 -0.125 3.375 -0.125 7 0 C9 2 9 2 9.125 5.125 C9.08375 6.07375 9.0425 7.0225 9 8 C2.84765625 8.09765625 2.84765625 8.09765625 1 8 C0 7 0 7 -0.0625 3.4375 C-0.041875 2.303125 -0.02125 1.16875 0 0 Z " fill="#CBF0FA" transform="translate(324,325)"/>
<path d="M0 0 C0 2.64 0 5.28 0 8 C-2.64 8 -5.28 8 -8 8 C-8 5.36 -8 2.72 -8 0 C-4.71023192 -1.09658936 -3.28696233 -0.79953138 0 0 Z " fill="#D1EEF8" transform="translate(125,325)"/>
<path d="M0 0 C4.62 0 9.24 0 14 0 C14 1.98 14 3.96 14 6 C9.38 5.34 4.76 4.68 0 4 C0 2.68 0 1.36 0 0 Z " fill="#5BB6FD" transform="translate(289,308)"/>
<path d="M0 0 C2.64 0 5.28 0 8 0 C8.36190476 5.42857143 8.36190476 5.42857143 6.8125 7.875 C4.43963721 9.34781139 2.74086056 9.22223194 0 9 C0 6.03 0 3.06 0 0 Z " fill="#D4EEF9" transform="translate(183,315)"/>
<path d="M0 0 C5.94 0 11.88 0 18 0 C18 0.33 18 0.66 18 1 C12.39 1 6.78 1 1 1 C1.66 2.32 2.32 3.64 3 5 C5.18541552 5.6993514 5.18541552 5.6993514 7.625 5.75 C8.85089844 5.83507812 8.85089844 5.83507812 10.1015625 5.921875 C10.72804687 5.94765625 11.35453125 5.9734375 12 6 C12.33 5.34 12.66 4.68 13 4 C13.33 5.32 13.66 6.64 14 8 C14.33 7.34 14.66 6.68 15 6 C15 6.66 15 7.32 15 8 C15.66 8 16.32 8 17 8 C17.33 7.34 17.66 6.68 18 6 C18 6.99 18 7.98 18 9 C12.06 9 6.12 9 0 9 C0 6.03 0 3.06 0 0 Z " fill="#464758" transform="translate(173,277)"/>
<path d="M0 0 C-0.875 7.875 -0.875 7.875 -2 9 C-4.33297433 9.04092937 -6.66705225 9.04241723 -9 9 C-9 6.36 -9 3.72 -9 1 C-2.25 0 -2.25 0 0 0 Z " fill="#F6FEFA" transform="translate(192,324)"/>
<path d="M0 0 C2.64 0 5.28 0 8 0 C8 2.64 8 5.28 8 8 C5.36 8 2.72 8 0 8 C0 5.36 0 2.72 0 0 Z " fill="#CFF0FC" transform="translate(98,325)"/>
<path d="M0 0 C2.64 0 5.28 0 8 0 C8 2.64 8 5.28 8 8 C5.36 8 2.72 8 0 8 C0 5.36 0 2.72 0 0 Z " fill="#D1EDF7" transform="translate(98,306)"/>
<path d="M0 0 C2.64 0 5.28 0 8 0 C8 2.64 8 5.28 8 8 C5.36 8 2.72 8 0 8 C0 5.36 0 2.72 0 0 Z " fill="#D2EFF7" transform="translate(230,268)"/>
<path d="M0 0 C0.33 0 0.66 0 1 0 C1 2.64 1 5.28 1 8 C1.66 7.67 2.32 7.34 3 7 C3 5.35 3 3.7 3 2 C3.66 2 4.32 2 5 2 C5 1.34 5 0.68 5 0 C6.65 0 8.3 0 10 0 C11 3 11 3 11 6 C10 8 10 8 9 9 C5.99668982 9.14193337 3.00782866 9.04236378 0 9 C0 6.03 0 3.06 0 0 Z " fill="#434459" transform="translate(69,268)"/>
<path d="M0 0 C2.64 0 5.28 0 8 0 C8 2.64 8 5.28 8 8 C5.36 8 2.72 8 0 8 C0 5.36 0 2.72 0 0 Z " fill="#353C50" transform="translate(334,230)"/>
<path d="M0 0 C2.64 0 5.28 0 8 0 C8 2.64 8 5.28 8 8 C5.36 8 2.72 8 0 8 C0 5.36 0 2.72 0 0 Z " fill="#6CB0E6" transform="translate(334,221)"/>
<path d="M0 0 C2.64 0 5.28 0 8 0 C8 2.64 8 5.28 8 8 C5.36 8 2.72 8 0 8 C0 5.36 0 2.72 0 0 Z " fill="#DBDFEC" transform="translate(287,136)"/>
<path d="M0 0 C2.64 0 5.28 0 8 0 C8 2.64 8 5.28 8 8 C5.36 8 2.72 8 0 8 C0 5.36 0 2.72 0 0 Z " fill="#35334B" transform="translate(268,70)"/>
<path d="M0 0 C0.33 0 0.66 0 1 0 C1.34197019 3.12411592 1.67192253 6.24939708 2 9.375 C2.09539062 10.24511719 2.19078125 11.11523438 2.2890625 12.01171875 C2.91321115 18.03029503 3.11723906 23.95079012 3 30 C2.67 30 2.34 30 2 30 C2 27.03 2 24.06 2 21 C-0.97 21 -3.94 21 -7 21 C-5.71034824 19.62437146 -4.37310707 18.29233607 -3 17 C-2.34 17 -1.68 17 -1 17 C-0.67 11.39 -0.34 5.78 0 0 Z " fill="#567B97" transform="translate(180,209)"/>
<path d="M0 0 C4.29161047 -0.05783842 8.58312145 -0.0935412 12.875 -0.125 C14.09832031 -0.14175781 15.32164062 -0.15851563 16.58203125 -0.17578125 C17.74863281 -0.18222656 18.91523438 -0.18867188 20.1171875 -0.1953125 C21.19597168 -0.20578613 22.27475586 -0.21625977 23.38623047 -0.22705078 C26 0 26 0 28 2 C23.00095175 3.06160454 18.48690341 2.97779674 13.4375 2.625 C12.69564453 2.58117187 11.95378906 2.53734375 11.18945312 2.4921875 C7.38036079 2.24797143 3.72818318 1.87113983 0 1 C0 0.67 0 0.34 0 0 Z " fill="#7EE1E4" transform="translate(258,315)"/>
<path d="M0 0 C12.54 0 25.08 0 38 0 C38 2.97 38 5.94 38 9 C37.67 9 37.34 9 37 9 C36.505 5.04 36.505 5.04 36 1 C35.01 1.33 34.02 1.66 33 2 C30.92040298 2.07172261 28.83853542 2.08394768 26.7578125 2.0625 C25.52675781 2.05476563 24.29570312 2.04703125 23.02734375 2.0390625 C20.43359297 2.01309903 17.83984296 1.98705783 15.24609375 1.9609375 C13.39564453 1.94933594 13.39564453 1.94933594 11.5078125 1.9375 C10.38004395 1.92589844 9.25227539 1.91429687 8.09033203 1.90234375 C5.26277356 1.99169621 2.74628207 2.34914332 0 3 C0 2.01 0 1.02 0 0 Z " fill="#4D4F5C" transform="translate(258,362)"/>
<path d="M0 0 C4.29 0 8.58 0 13 0 C13 0.33 13 0.66 13 1 C10.69 1.66 8.38 2.32 6 3 C6.33 3.66 6.66 4.32 7 5 C4.32521756 6.6627026 2.0004856 7.99983813 -1 9 C-2.16552619 4.80410573 -2.08954032 4.17908064 0 0 Z " fill="#42425C" transform="translate(65,258)"/>
<path d="M0 0 C1.134375 0.020625 2.26875 0.04125 3.4375 0.0625 C3.4375 2.3725 3.4375 4.6825 3.4375 7.0625 C0.7975 7.0625 -1.8425 7.0625 -4.5625 7.0625 C-4.60504356 5.06295254 -4.60330783 3.06208364 -4.5625 1.0625 C-3.5625 0.0625 -3.5625 0.0625 0 0 Z " fill="#FBFDFD" transform="translate(102.5625,315.9375)"/>
<path d="M0 0 C0.33 0 0.66 0 1 0 C1 5.94 1 11.88 1 18 C6.94 18 12.88 18 19 18 C19 18.33 19 18.66 19 19 C13.06 19 7.12 19 1 19 C1 21.97 1 24.94 1 28 C0.67 28 0.34 28 0 28 C0 25.03 0 22.06 0 19 C-2.97 19 -5.94 19 -9 19 C-9 18.67 -9 18.34 -9 18 C-6.03 18 -3.06 18 0 18 C0 12.06 0 6.12 0 0 Z " fill="#9598A3" transform="translate(97,98)"/>
<path d="M0 0 C3 0.125 3 0.125 4 1.125 C4.04080783 3.12458364 4.04254356 5.12545254 4 7.125 C1.36 7.125 -1.28 7.125 -4 7.125 C-4.04254356 5.12545254 -4.04080783 3.12458364 -4 1.125 C-3 0.125 -3 0.125 0 0 Z " fill="#D2EEF5" transform="translate(187,334.875)"/>
<path d="M0 0 C0.33 0 0.66 0 1 0 C1.02689216 1.47906892 1.04634621 2.95827483 1.0625 4.4375 C1.07410156 5.26121094 1.08570313 6.08492187 1.09765625 6.93359375 C1 9 1 9 0 10 C-1.92667507 10.08748207 -3.85651861 10.10697334 -5.78515625 10.09765625 C-6.95498047 10.09443359 -8.12480469 10.09121094 -9.33007812 10.08789062 C-11.17762695 10.07532227 -11.17762695 10.07532227 -13.0625 10.0625 C-14.91584961 10.05573242 -14.91584961 10.05573242 -16.80664062 10.04882812 C-19.87114117 10.03699608 -22.93554721 10.02051173 -26 10 C-26 9.67 -26 9.34 -26 9 C-24.68644531 8.95101562 -23.37289062 8.90203125 -22.01953125 8.8515625 C-20.28383405 8.77650532 -18.54815797 8.70095877 -16.8125 8.625 C-15.94818359 8.5940625 -15.08386719 8.563125 -14.19335938 8.53125 C-7.84458857 8.29793154 -7.84458857 8.29793154 -2 6 C-0.62810173 2.97017694 -0.62810173 2.97017694 0 0 Z " fill="#2B4A67" transform="translate(162,239)"/>
<path d="M0 0 C0.33 0 0.66 0 1 0 C1.02727678 2.97923003 1.04697128 5.95820379 1.0625 8.9375 C1.07087891 9.76830078 1.07925781 10.59910156 1.08789062 11.45507812 C1.10966956 17.05226441 0.71159268 22.44733582 0 28 C-2.97 28 -5.94 28 -9 28 C-8.67 27.34 -8.34 26.68 -8 26 C-6.02 26 -4.04 26 -2 26 C-2 22.7 -2 19.4 -2 16 C-1.34 16 -0.68 16 0 16 C0 10.72 0 5.44 0 0 Z " fill="#384763" transform="translate(342,192)"/>
<path d="M0 0 C2.64 0 5.28 0 8 0 C8 2.97 8 5.94 8 9 C10.97 9 13.94 9 17 9 C17 9.33 17 9.66 17 10 C13.7 10 10.4 10 7 10 C6.67 7.69 6.34 5.38 6 3 C5.67 3.99 5.34 4.98 5 6 C3.35 5.67 1.7 5.34 0 5 C0 3.33333333 0 1.66666667 0 0 Z M2 3 C3 5 3 5 3 5 Z " fill="#B8D3E2" transform="translate(354,145)"/>
<path d="M0 0 C3.3 0 6.6 0 10 0 C10.09765625 6.93359375 10.09765625 6.93359375 10 9 C9 10 9 10 6.93359375 10.09765625 C3.46679688 10.04882812 3.46679688 10.04882812 0 10 C0 6.7 0 3.4 0 0 Z M1 1 C0.70392303 4.60988065 0.70392303 4.60988065 2.1875 7.8125 C4.55982525 9.36678206 6.22041345 9.22537188 9 9 C9 6.69 9 4.38 9 2 C6.29120665 0.64560332 3.99066732 0.93498549 1 1 Z " fill="#E1F4FA" transform="translate(144,314)"/>
<path d="M0 0 C6.6 0.33 13.2 0.66 20 1 C20 3.97 20 6.94 20 10 C16.7 10 13.4 10 10 10 C10 9.67 10 9.34 10 9 C12.97 9 15.94 9 19 9 C19 6.69 19 4.38 19 2 C16.9163691 2.14151828 14.83310062 2.28837936 12.75 2.4375 C11.00976562 2.55931641 11.00976562 2.55931641 9.234375 2.68359375 C6.13050083 2.90211812 6.13050083 2.90211812 3.703125 3.59765625 C2 4 2 4 0 3 C0 2.01 0 1.02 0 0 Z " fill="#4F525F" transform="translate(389,163)"/>
<path d="M0 0 C0.33 0.66 0.66 1.32 1 2 C3.55234151 2.35561725 6.07868652 2.44379753 8.65234375 2.55859375 C9.81443359 2.77708984 9.81443359 2.77708984 11 3 C11.99 4.485 11.99 4.485 13 6 C12.06027344 6.09087891 12.06027344 6.09087891 11.1015625 6.18359375 C10.28429687 6.26738281 9.46703125 6.35117188 8.625 6.4375 C7.81289063 6.51871094 7.00078125 6.59992188 6.1640625 6.68359375 C3.95727195 6.89090114 3.95727195 6.89090114 2 8 C2 7.01 2 6.02 2 5 C1.67 5.99 1.34 6.98 1 8 C0.34 8 -0.32 8 -1 8 C-1.93065133 5.39417629 -2.14917407 4.35801776 -1.0625 1.75 C-0.711875 1.1725 -0.36125 0.595 0 0 Z " fill="#35384F" transform="translate(395,232)"/>
<path d="M0 0 C0.66 0 1.32 0 2 0 C2 2.97 2 5.94 2 9 C-0.97 9 -3.94 9 -7 9 C-5.68 8.34 -4.36 7.68 -3 7 C-3.33 6.67 -3.66 6.34 -4 6 C-1.125 1.125 -1.125 1.125 0 0 Z " fill="#F3F3F6" transform="translate(227,381)"/>
<path d="M0 0 C3.3 0 6.6 0 10 0 C10 3.3 10 6.6 10 10 C9.01 10 8.02 10 7 10 C7 7.36 7 4.72 7 2 C5.02 2 3.04 2 1 2 C0.67 1.34 0.34 0.68 0 0 Z " fill="#D3F2FC" transform="translate(239,324)"/>
<path d="M0 0 C1.4540625 0.0309375 1.4540625 0.0309375 2.9375 0.0625 C2.6075 2.3725 2.2775 4.6825 1.9375 7.0625 C-0.0425 7.0625 -2.0225 7.0625 -4.0625 7.0625 C-4.10504356 5.06295254 -4.10330783 3.06208364 -4.0625 1.0625 C-3.0625 0.0625 -3.0625 0.0625 0 0 Z " fill="#CDEFF7" transform="translate(179.0625,324.9375)"/>
<path d="M0 0 C3.3 0 6.6 0 10 0 C10 2.97 10 5.94 10 9 C9.67 9 9.34 9 9 9 C9 6.69 9 4.38 9 2 C7.02 2.33 5.04 2.66 3 3 C3 4.32 3 5.64 3 7 C2.34 7 1.68 7 1 7 C0.67 7.66 0.34 8.32 0 9 C0 6.03 0 3.06 0 0 Z " fill="#545667" transform="translate(229,381)"/>
<path d="M0 0 C0.33 0 0.66 0 1 0 C1 3.63 1 7.26 1 11 C1.99 11.33 2.98 11.66 4 12 C2.741875 12.185625 1.48375 12.37125 0.1875 12.5625 C-0.87404297 12.71912109 -0.87404297 12.71912109 -1.95703125 12.87890625 C-4 13 -4 13 -7 12 C-7.33 14.31 -7.66 16.62 -8 19 C-8.33 19 -8.66 19 -9 19 C-9 16.03 -9 13.06 -9 10 C-6.03 10 -3.06 10 0 10 C0 6.7 0 3.4 0 0 Z " fill="#555869" transform="translate(380,239)"/>
<path d="M0 0 C2.97 0 5.94 0 9 0 C9 2.97 9 5.94 9 9 C6.03 9 3.06 9 0 9 C0 6.03 0 3.06 0 0 Z M1 1 C0.957279 2.66611905 0.95936168 4.33382885 1 6 C2.12534105 7.35618499 2.12534105 7.35618499 5.0625 7.0625 C6.031875 7.041875 7.00125 7.02125 8 7 C8 5.02 8 3.04 8 1 C5.69 1 3.38 1 1 1 Z " fill="#8ED8E7" transform="translate(343,211)"/>
<path d="M0 0 C2.97 0 5.94 0 9 0 C9 0.33 9 0.66 9 1 C6.69 1 4.38 1 2 1 C1.9175 1.598125 1.835 2.19625 1.75 2.8125 C0.79544128 5.5966296 -0.57132271 6.43311142 -3 8 C-4.4606285 5.35261084 -5 4.10551666 -5 1 C-3.68 1.33 -2.36 1.66 -1 2 C-0.67 1.34 -0.34 0.68 0 0 Z " fill="#51526B" transform="translate(343,116)"/>
<path d="M0 0 C0.99 0 1.98 0 3 0 C3 2.97 3 5.94 3 9 C1.35 9 -0.3 9 -2 9 C-1.125 2.25 -1.125 2.25 0 0 Z " fill="#E2F8FB" transform="translate(236,315)"/>
<path d="M0 0 C2.64 0 5.28 0 8 0 C8 0.66 8 1.32 8 2 C7.34 2.66 6.68 3.32 6 4 C6 4.66 6 5.32 6 6 C4.68 5.67 3.36 5.34 2 5 C2 5.66 2 6.32 2 7 C1.34 7 0.68 7 0 7 C0 4.69 0 2.38 0 0 Z " fill="#343D50" transform="translate(277,268)"/>
<path d="M0 0 C2.64 0 5.28 0 8 0 C7.01 0.33 6.02 0.66 5 1 C3.77479736 4.00847418 3.77479736 4.00847418 3 7 C3.99 7.33 4.98 7.66 6 8 C4.02 8 2.04 8 0 8 C0 5.36 0 2.72 0 0 Z " fill="#35394B" transform="translate(362,259)"/>
<path d="M0 0 C2.97 0 5.94 0 9 0 C8.67 0.99 8.34 1.98 8 3 C6.02 3.33 4.04 3.66 2 4 C2 5.32 2 6.64 2 8 C1.34 8 0.68 8 0 8 C0 5.36 0 2.72 0 0 Z " fill="#2A4060" transform="translate(164,249)"/>
<path d="M0 0 C2.31 0 4.62 0 7 0 C7 1.98 7 3.96 7 6 C5.35 6 3.7 6 2 6 C2 5.34 2 4.68 2 4 C1.34 4 0.68 4 0 4 C0 2.68 0 1.36 0 0 Z " fill="#7BE1F2" transform="translate(174,230)"/>
<path d="M0 0 C0.33 0 0.66 0 1 0 C1 3.3 1 6.6 1 10 C-1.64 10 -4.28 10 -7 10 C-6.67 8.68 -6.34 7.36 -6 6 C-4.35 5.67 -2.7 5.34 -1 5 C-0.67 3.35 -0.34 1.7 0 0 Z " fill="#38394D" transform="translate(143,181)"/>
<path d="M0 0 C0.33 0 0.66 0 1 0 C1.02689216 1.47906892 1.04634621 2.95827483 1.0625 4.4375 C1.07410156 5.26121094 1.08570313 6.08492187 1.09765625 6.93359375 C1 9 1 9 0 10 C-2.69654854 10.07319621 -5.36691458 10.09242537 -8.0625 10.0625 C-9.20041992 10.05573242 -9.20041992 10.05573242 -10.36132812 10.04882812 C-12.24091871 10.0370068 -14.12046899 10.01907078 -16 10 C-16 9.67 -16 9.34 -16 9 C-12.7 9 -9.4 9 -6 9 C-6 8.34 -6 7.68 -6 7 C-4.02 7 -2.04 7 0 7 C0 4.69 0 2.38 0 0 Z " fill="#E0F4F9" transform="translate(191,126)"/>
<path d="M0 0 C0.33 0 0.66 0 1 0 C1 2.64 1 5.28 1 8 C3.64 8 6.28 8 9 8 C9 5.36 9 2.72 9 0 C9.33 0 9.66 0 10 0 C10 2.97 10 5.94 10 9 C7.03 9 4.06 9 1 9 C1 11.97 1 14.94 1 18 C0.67 18 0.34 18 0 18 C-0.83288874 11.74692761 -1.03863773 6.23182639 0 0 Z " fill="#5686AD" transform="translate(163,240)"/>
<path d="M0 0 C3.3 0 6.6 0 10 0 C10 2.97 10 5.94 10 9 C9.67 9 9.34 9 9 9 C9 6.69 9 4.38 9 2 C6.69 2 4.38 2 2 2 C1.67 4.31 1.34 6.62 1 9 C0.67 9 0.34 9 0 9 C0 6.03 0 3.06 0 0 Z " fill="#D0D4DD" transform="translate(163,192)"/>
<path d="M0 0 C0.33 0 0.66 0 1 0 C1 2.64 1 5.28 1 8 C1.99 8.33 2.98 8.66 4 9 C3.34 9.66 2.68 10.32 2 11 C1.505 11.53625 1.01 12.0725 0.5 12.625 C-1 14 -1 14 -3 14 C-3 12.68 -3 11.36 -3 10 C-4.98 10 -6.96 10 -9 10 C-9 9.67 -9 9.34 -9 9 C-6.03 9 -3.06 9 0 9 C0 6.03 0 3.06 0 0 Z " fill="#646579" transform="translate(163,173)"/>
<path d="M0 0 C1.98 0 3.96 0 6 0 C6 2.31 6 4.62 6 7 C3.36 7 0.72 7 -2 7 C-1.34 6.67 -0.68 6.34 0 6 C0.33 5.34 0.66 4.68 1 4 C1.66 3.01 2.32 2.02 3 1 C2.01 0.67 1.02 0.34 0 0 Z " fill="#DDE0EE" transform="translate(176,165)"/>
<path d="M0 0 C2.05078125 0.03255208 4.1015625 0.06510417 6.15234375 0.09765625 C5.49234375 0.75765625 4.83234375 1.41765625 4.15234375 2.09765625 C2.83234375 2.09765625 1.51234375 2.09765625 0.15234375 2.09765625 C0.21421875 2.86078125 0.27609375 3.62390625 0.33984375 4.41015625 C0.11831063 7.58546431 -0.56540657 8.05501284 -2.84765625 10.09765625 C-2.87454841 8.61858733 -2.89400246 7.13938142 -2.91015625 5.66015625 C-2.92175781 4.83644531 -2.93335938 4.01273438 -2.9453125 3.1640625 C-2.8198894 0.51010975 -2.66068535 0.14062819 0 0 Z " fill="#274966" transform="translate(175.84765625,238.90234375)"/>
<path d="M0 0 C2.97 0 5.94 0 9 0 C9 0.33 9 0.66 9 1 C7.329375 1.2784375 7.329375 1.2784375 5.625 1.5625 C4.42875 2.036875 3.2325 2.51125 2 3 C0.45913678 6.51400668 0.45913678 6.51400668 0 10 C-1.32 9.67 -2.64 9.34 -4 9 C-3.34 8.34 -2.68 7.68 -2 7 C-1.28072705 4.68234271 -0.6090107 2.34904126 0 0 Z " fill="#E5F5FB" transform="translate(239,229)"/>
<path d="M0 0 C3.3 0 6.6 0 10 0 C10 0.33 10 0.66 10 1 C8.35 1.33 6.7 1.66 5 2 C5.33 2.99 5.66 3.98 6 5 C5.0625 7.6875 5.0625 7.6875 4 10 C3.67 10 3.34 10 3 10 C3 7.69 3 5.38 3 3 C2.34 3 1.68 3 1 3 C1 4.98 1 6.96 1 9 C0.67 9 0.34 9 0 9 C0 6.03 0 3.06 0 0 Z " fill="#4E5161" transform="translate(50,201)"/>
<path d="M0 0 C1.32 0.66 2.64 1.32 4 2 C3.6875 3.9375 3.6875 3.9375 3 6 C2.01 6.33 1.02 6.66 0 7 C-0.99 6.01 -1.98 5.02 -3 4 C-2.01 2.68 -1.02 1.36 0 0 Z " fill="#CDF2F9" transform="translate(158,325)"/>
<path d="M0 0 C0.33 0 0.66 0 1 0 C1 1.65 1 3.3 1 5 C1.66 5 2.32 5 3 5 C3 4.34 3 3.68 3 3 C5.31 3.33 7.62 3.66 10 4 C9.67 5.65 9.34 7.3 9 9 C8.67 8.34 8.34 7.68 8 7 C5.36 7 2.72 7 0 7 C0 4.69 0 2.38 0 0 Z " fill="#33364A" transform="translate(382,175)"/>
<path d="M0 0 C0.33 0 0.66 0 1 0 C1 2.97 1 5.94 1 9 C0.67 8.01 0.34 7.02 0 6 C-0.99 6.495 -0.99 6.495 -2 7 C-2 7.99 -2 8.98 -2 10 C-1.34 10 -0.68 10 0 10 C-0.33 10.66 -0.66 11.32 -1 12 C-2.32 12 -3.64 12 -5 12 C-4 9 -4 9 -3 8 C-4.32 7.67 -5.64 7.34 -7 7 C-5.75 5.4375 -5.75 5.4375 -4 4 C-1.8125 4.3125 -1.8125 4.3125 0 5 C0 3.35 0 1.7 0 0 Z " fill="#494B66" transform="translate(172,164)"/>
<path d="M0 0 C2.9171221 1.45856105 4.79807458 3.62423837 7 6 C7 6.66 7 7.32 7 8 C4.69 8 2.38 8 0 8 C0 5.36 0 2.72 0 0 Z M3 4 C3 4.66 3 5.32 3 6 C2.01 6.495 2.01 6.495 1 7 C2.32 7 3.64 7 5 7 C4.67 6.01 4.34 5.02 4 4 C3.67 4 3.34 4 3 4 Z M8 4 C8.66 4.66 9.32 5.32 10 6 C9.01 5.67 8.02 5.34 7 5 C7.33 4.67 7.66 4.34 8 4 Z " fill="#313752" transform="translate(174,155)"/>
<path d="M0 0 C0.33 0 0.66 0 1 0 C1 1.65 1 3.3 1 5 C1.66 5 2.32 5 3 5 C3 5.66 3 6.32 3 7 C3.61875 6.360625 4.2375 5.72125 4.875 5.0625 C7 3 7 3 9 2 C9 3.98 9 5.96 9 8 C2.84765625 8.09765625 2.84765625 8.09765625 1 8 C0 7 0 7 -0.0625 3.4375 C-0.041875 2.303125 -0.02125 1.16875 0 0 Z " fill="#D5EFF3" transform="translate(324,325)"/>
<path d="M0 0 C0.61875 0.474375 1.2375 0.94875 1.875 1.4375 C3.90705546 3.02417441 3.90705546 3.02417441 6 4 C5.67 5.98 5.34 7.96 5 10 C3.35 9.67 1.7 9.34 0 9 C0 6.03 0 3.06 0 0 Z " fill="#C5E3F2" transform="translate(305,70)"/>
<path d="M0 0 C0.99 0 1.98 0 3 0 C3 2.97 3 5.94 3 9 C-2.625 11.125 -2.625 11.125 -6 10 C-6 9.67 -6 9.34 -6 9 C-4.02 8.67 -2.04 8.34 0 8 C0 5.36 0 2.72 0 0 Z " fill="#E7F5F6" transform="translate(331,343)"/>
<path d="M0 0 C1.32 0.33 2.64 0.66 4 1 C3.01 1 2.02 1 1 1 C1 3.31 1 5.62 1 8 C2.98 7.34 4.96 6.68 7 6 C7.33 4.02 7.66 2.04 8 0 C8.33 0 8.66 0 9 0 C9.09765625 6.15234375 9.09765625 6.15234375 9 8 C8 9 8 9 6.15234375 9.09765625 C4.1015625 9.06510417 2.05078125 9.03255208 0 9 C0 6.03 0 3.06 0 0 Z " fill="#D9EDF3" transform="translate(324,296)"/>
<path d="M0 0 C1.32 0.33 2.64 0.66 4 1 C3.34 1 2.68 1 2 1 C2.66 2.65 3.32 4.3 4 6 C5.32 6 6.64 6 8 6 C8 6.66 8 7.32 8 8 C5.36 8 2.72 8 0 8 C0 5.36 0 2.72 0 0 Z " fill="#D6EEF3" transform="translate(98,325)"/>
<path d="M0 0 C2.97 0 5.94 0 9 0 C8.01 0.33 7.02 0.66 6 1 C6 1.66 6 2.32 6 3 C5.01 3 4.02 3 3 3 C3 3.66 3 4.32 3 5 C2.01 5.33 1.02 5.66 0 6 C0 4.02 0 2.04 0 0 Z " fill="#EBEBF2" transform="translate(173,258)"/>
<path d="M0 0 C2.97 0 5.94 0 9 0 C5.375 3 5.375 3 2 3 C1.67 4.65 1.34 6.3 1 8 C0.67 8 0.34 8 0 8 C0 5.36 0 2.72 0 0 Z " fill="#EFFCFE" transform="translate(390,324)"/>
<path d="M0 0 C0.1875 2.875 0.1875 2.875 0 6 C-0.99 6.66 -1.98 7.32 -3 8 C-3 7.34 -3 6.68 -3 6 C-3.66 6 -4.32 6 -5 6 C-5 4.68 -5 3.36 -5 2 C-1.125 0 -1.125 0 0 0 Z " fill="#72E9F5" transform="translate(331,230)"/>
<path d="M0 0 C2.97 0 5.94 0 9 0 C9 2.97 9 5.94 9 9 C6.84622436 6.37801226 5.59927826 4.35595828 5 1 C3.35 1 1.7 1 0 1 C0 0.67 0 0.34 0 0 Z " fill="#E8EBF0" transform="translate(69,277)"/>
<path d="M0 0 C1.98 0 3.96 0 6 0 C4.02 0.99 4.02 0.99 2 2 C2 3.32 2 4.64 2 6 C2.66 6 3.32 6 4 6 C4 6.66 4 7.32 4 8 C2.68 8 1.36 8 0 8 C0 5.36 0 2.72 0 0 Z " fill="#85DAEC" transform="translate(324,230)"/>
<path d="M0 0 C0.66 0.66 1.32 1.32 2 2 C1.75 5.5625 1.75 5.5625 1 9 C-1.52053595 10.26026798 -2.8542098 9.91874445 -5.625 9.5625 C-6.44226562 9.46066406 -7.25953125 9.35882813 -8.1015625 9.25390625 C-8.72804687 9.17011719 -9.35453125 9.08632812 -10 9 C-10 8.67 -10 8.34 -10 8 C-5.545 7.505 -5.545 7.505 -1 7 C-0.67 4.69 -0.34 2.38 0 0 Z " fill="#323547" transform="translate(61,194)"/>
<path d="M0 0 C1.32 0 2.64 0 4 0 C4.625 1.875 4.625 1.875 5 4 C4.34 4.66 3.68 5.32 3 6 C2.01 6 1.02 6 0 6 C0 4.02 0 2.04 0 0 Z " fill="#CCF3FB" transform="translate(109,317)"/>
<path d="M0 0 C2.46800047 1.15173355 4.04783565 2.04783565 6 4 C5.34 4 4.68 4 4 4 C4 4.66 4 5.32 4 6 C2.68 6 1.36 6 0 6 C-1.125 2.25 -1.125 2.25 0 0 Z " fill="#5CBAFA" transform="translate(336,222)"/>
<path d="M0 0 C0.33 0 0.66 0 1 0 C1 2.64 1 5.28 1 8 C-1.97 8 -4.94 8 -8 8 C-7.67 7.34 -7.34 6.68 -7 6 C-5.02 6 -3.04 6 -1 6 C-0.67 4.02 -0.34 2.04 0 0 Z " fill="#234266" transform="translate(341,212)"/>
<path d="M0 0 C2.31 0 4.62 0 7 0 C4 2 4 2 1 2 C1.66 3.65 2.32 5.3 3 7 C1.35 7 -0.3 7 -2 7 C-1.34 4.69 -0.68 2.38 0 0 Z " fill="#353549" transform="translate(317,174)"/>
<path d="M0 0 C2.64 0 5.28 0 8 0 C8 0.66 8 1.32 8 2 C6.8553125 2.1546875 6.8553125 2.1546875 5.6875 2.3125 C2.82940576 3.04364039 1.84257115 3.76951913 0 6 C0 4.02 0 2.04 0 0 Z " fill="#234168" transform="translate(334,230)"/>
<path d="M0 0 C0 1.98 0 3.96 0 6 C-0.33 6 -0.66 6 -1 6 C-1.33 8.31 -1.66 10.62 -2 13 C-2.33 13 -2.66 13 -3 13 C-3.33 9.04 -3.66 5.08 -4 1 C-1 0 -1 0 0 0 Z " fill="#4C4E65" transform="translate(185,160)"/>
<path d="M0 0 C0.33 0 0.66 0 1 0 C1 2.97 1 5.94 1 9 C-1.97 9 -4.94 9 -8 9 C-8 8.67 -8 8.34 -8 8 C-7.05125 7.79375 -6.1025 7.5875 -5.125 7.375 C-1.70833333 6.29166667 -1.70833333 6.29166667 -0.625 2.875 C-0.41875 1.92625 -0.2125 0.9775 0 0 Z " fill="#DBECF2" transform="translate(379,296)"/>
<path d="M0 0 C1.32 0.33 2.64 0.66 4 1 C4 2.65 4 4.3 4 6 C2.68 6 1.36 6 0 6 C0 4.02 0 2.04 0 0 Z " fill="#5AB6FB" transform="translate(166,241)"/>
<path d="M0 0 C0.66 0.33 1.32 0.66 2 1 C2 3.64 2 6.28 2 9 C-0.97 9 -3.94 9 -7 9 C-7 8.67 -7 8.34 -7 8 C-4.69 7.34 -2.38 6.68 0 6 C0 4.02 0 2.04 0 0 Z " fill="#244468" transform="translate(331,220)"/>
<path d="M0 0 C0 2.97 0 5.94 0 9 C-0.33 9 -0.66 9 -1 9 C-1 6.36 -1 3.72 -1 1 C-2.485 2.485 -2.485 2.485 -4 4 C-5.32 3.34 -6.64 2.68 -8 2 C-4.77208445 -0.1519437 -3.71599191 -0.20086443 0 0 Z " fill="#47536C" transform="translate(343,145)"/>
<path d="M0 0 C0.99 0 1.98 0 3 0 C3 1.32 3 2.64 3 4 C3.2981424 5.34164079 3.62243192 6.67851173 4 8 C2.68 8 1.36 8 0 8 C0 5.36 0 2.72 0 0 Z " fill="#2F374D" transform="translate(183,117)"/>
<path d="M0 0 C1.65 0 3.3 0 5 0 C4.67 1.32 4.34 2.64 4 4 C2.35 4 0.7 4 -1 4 C-0.67 2.68 -0.34 1.36 0 0 Z " fill="#61B3F8" transform="translate(298,318)"/>
<path d="M0 0 C2.97 0 5.94 0 9 0 C9 0.66 9 1.32 9 2 C8.34 2 7.68 2 7 2 C7 3.98 7 5.96 7 8 C6.67 8 6.34 8 6 8 C6 6.02 6 4.04 6 2 C3.03 1.505 3.03 1.505 0 1 C0 0.67 0 0.34 0 0 Z " fill="#2F4B60" transform="translate(324,239)"/>
<path d="M0 0 C0.66 0 1.32 0 2 0 C2 2.97 2 5.94 2 9 C1.67 8.34 1.34 7.68 1 7 C0.34 7 -0.32 7 -1 7 C-1.04254356 5.00045254 -1.04080783 2.99958364 -1 1 C-0.67 0.67 -0.34 0.34 0 0 Z " fill="#37445D" transform="translate(124,239)"/>
<path d="M0 0 C0.33 0 0.66 0 1 0 C1 3.3 1 6.6 1 10 C-0.65 10 -2.3 10 -4 10 C-4 9.34 -4 8.68 -4 8 C-3.01 8 -2.02 8 -1 8 C-0.67 5.36 -0.34 2.72 0 0 Z " fill="#264060" transform="translate(171,228)"/>
<path d="M0 0 C1.9451 2.91765 2.45276317 4.62537285 3 8 C1.68 8 0.36 8 -1 8 C-1.04241723 5.66705225 -1.04092937 3.33297433 -1 1 C-0.67 0.67 -0.34 0.34 0 0 Z " fill="#3A3C50" transform="translate(61,259)"/>
<path d="M0 0 C1.98 0 3.96 0 6 0 C5.071875 1.1446875 5.071875 1.1446875 4.125 2.3125 C1.94402948 4.99625809 1.94402948 4.99625809 0 8 C0 5.36 0 2.72 0 0 Z " fill="#1E4765" transform="translate(343,221)"/>
<path d="M0 0 C2.97 0.495 2.97 0.495 6 1 C6.33 1.99 6.66 2.98 7 4 C5.35 4 3.7 4 2 4 C1.67 4.66 1.34 5.32 1 6 C0.67 4.02 0.34 2.04 0 0 Z " fill="#3F3C57" transform="translate(268,70)"/>
<path d="M0 0 C1.98 0 3.96 0 6 0 C5.34 1.32 4.68 2.64 4 4 C2.68 3.67 1.36 3.34 0 3 C0 2.01 0 1.02 0 0 Z " fill="#71E8F0" transform="translate(345,213)"/>
<path d="M0 0 C-0.33 1.65 -0.66 3.3 -1 5 C-1.99 5.33 -2.98 5.66 -4 6 C-4 4.35 -4 2.7 -4 1 C-2 0 -2 0 0 0 Z " fill="#C8F2FB" transform="translate(388,325)"/>
<path d="M0 0 C2.97 0 5.94 0 9 0 C9 0.33 9 0.66 9 1 C7.88625 1.2475 6.7725 1.495 5.625 1.75 C1.95384802 2.61005339 1.95384802 2.61005339 0.5625 5.125 C0.376875 5.74375 0.19125 6.3625 0 7 C0 4.69 0 2.38 0 0 Z " fill="#D8FCFE" transform="translate(296,324)"/>
<path d="M0 0 C0.33 0 0.66 0 1 0 C1 2.31 1 4.62 1 7 C0.01 6.67 -0.98 6.34 -2 6 C-1.34 4.02 -0.68 2.04 0 0 Z M-4 5 C-3.34 5.66 -2.68 6.32 -2 7 C-2.99 7.495 -2.99 7.495 -4 8 C-4 7.01 -4 6.02 -4 5 Z " fill="#55B9EE" transform="translate(256,316)"/>
<path d="M0 0 C3.96 0 7.92 0 12 0 C11.67 0.99 11.34 1.98 11 3 C7.37 2.34 3.74 1.68 0 1 C0 0.67 0 0.34 0 0 Z " fill="#234058" transform="translate(151,259)"/>
<path d="M0 0 C0.33 0 0.66 0 1 0 C1 2.97 1 5.94 1 9 C0.67 8.01 0.34 7.02 0 6 C-0.66 6 -1.32 6 -2 6 C-1.125 1.125 -1.125 1.125 0 0 Z " fill="#5484A1" transform="translate(323,230)"/>
<path d="M0 0 C0.33 0 0.66 0 1 0 C1.05399736 1.45792884 1.09279177 2.91642712 1.125 4.375 C1.14820313 5.18710938 1.17140625 5.99921875 1.1953125 6.8359375 C1 9 1 9 -1 11 C-1.66 11 -2.32 11 -3 11 C-2.67 9.68 -2.34 8.36 -2 7 C-1.34 7 -0.68 7 0 7 C0 4.69 0 2.38 0 0 Z " fill="#45485C" transform="translate(134,221)"/>
<path d="M0 0 C0.33 0 0.66 0 1 0 C1 2.64 1 5.28 1 8 C-0.32 8 -1.64 8 -3 8 C-3 7.34 -3 6.68 -3 6 C-2.34 6 -1.68 6 -1 6 C-0.67 4.02 -0.34 2.04 0 0 Z " fill="#45455A" transform="translate(351,221)"/>
<path d="M0 0 C-0.99 0.33 -1.98 0.66 -3 1 C-3 1.66 -3 2.32 -3 3 C-4.65 3.33 -6.3 3.66 -8 4 C-8 3.01 -8 2.02 -8 1 C-5.29120665 -0.35439668 -2.99066732 -0.06501451 0 0 Z " fill="#2F3A5C" transform="translate(170,235)"/>
<path d="M0 0 C1.65 0 3.3 0 5 0 C4.67 1.32 4.34 2.64 4 4 C2.35 3.67 0.7 3.34 -1 3 C-0.67 2.01 -0.34 1.02 0 0 Z " fill="#333848" transform="translate(120,202)"/>
<path d="M0 0 C1.98 0 3.96 0 6 0 C6 1.65 6 3.3 6 5 C4.68 4.67 3.36 4.34 2 4 C2.33 3.01 2.66 2.02 3 1 C2.01 0.67 1.02 0.34 0 0 Z " fill="#F6F5FB" transform="translate(261,98)"/>
<path d="M0 0 C1.65 0 3.3 0 5 0 C5 0.99 5 1.98 5 3 C2.69 3 0.38 3 -2 3 C-1.34 2.67 -0.68 2.34 0 2 C0 1.34 0 0.68 0 0 Z " fill="#393B50" transform="translate(271,75)"/>
<path d="M0 0 C1.32 0 2.64 0 4 0 C4 1.98 4 3.96 4 6 C2.68 5.67 1.36 5.34 0 5 C0 3.35 0 1.7 0 0 Z " fill="#F9F8F4" transform="translate(277,69)"/>
</svg>
