<svg version="1.0" xmlns="http://www.w3.org/2000/svg"
 width="512.000000pt" height="512.000000pt" viewBox="0 0 512.000000 512.000000"
 preserveAspectRatio="xMidYMid meet">

<g transform="translate(0.000000,512.000000) scale(0.100000,-0.100000)"
fill="#000000" stroke="none">
<path d="M1128 5109 c-572 -67 -1031 -518 -1113 -1094 -22 -148 -22 -2762 0
-2910 41 -289 169 -540 379 -742 200 -194 435 -309 711 -348 148 -22 2762 -22
2910 0 570 81 1009 520 1090 1090 22 148 22 2762 0 2910 -39 276 -154 511
-348 711 -187 194 -416 318 -696 376 -69 14 -2814 21 -2933 7z m1296 -866 c5
-56 14 -124 36 -287 5 -44 14 -84 19 -90 5 -6 12 -36 16 -66 4 -30 11 -61 15
-70 21 -40 40 -90 40 -104 0 -9 8 -16 19 -16 14 0 22 10 26 32 4 18 11 39 15
48 20 40 29 69 35 107 4 24 10 45 15 48 5 3 11 40 15 83 4 42 11 82 15 87 4 6
11 72 15 148 l7 137 298 0 297 0 7 -101 c4 -56 11 -108 15 -117 20 -39 30 -69
36 -104 3 -21 10 -38 15 -38 6 0 10 -9 10 -21 0 -11 13 -43 29 -72 16 -29 37
-67 47 -86 32 -59 219 -261 241 -261 7 0 13 -3 13 -7 0 -5 15 -17 32 -28 18
-11 44 -28 58 -37 14 -10 36 -23 50 -29 14 -6 43 -20 65 -30 55 -26 156 -58
181 -59 11 0 24 -3 28 -7 4 -5 51 -12 104 -18 l97 -10 3 -297 2 -298 -79 0
c-44 0 -82 -4 -85 -8 -3 -5 -51 -12 -107 -16 -56 -3 -107 -10 -113 -15 -6 -5
-35 -12 -63 -16 -29 -4 -55 -11 -59 -16 -3 -5 -16 -9 -29 -9 -13 0 -26 -4 -29
-9 -4 -5 -24 -12 -46 -16 -22 -4 -42 -11 -46 -16 -3 -5 -14 -9 -25 -9 -10 0
-19 -6 -19 -13 0 -15 41 -33 97 -42 24 -4 45 -11 48 -16 3 -4 28 -11 56 -15
27 -4 52 -11 55 -15 3 -5 18 -9 34 -9 15 0 30 -4 32 -10 2 -5 54 -12 116 -16
62 -4 115 -11 118 -16 3 -4 36 -8 75 -8 l69 0 -2 -297 -3 -298 -100 -8 c-55
-4 -109 -12 -120 -17 -11 -5 -39 -12 -62 -15 -24 -4 -45 -11 -49 -16 -3 -5
-12 -9 -21 -9 -8 0 -29 -6 -46 -14 -18 -8 -39 -17 -47 -20 -16 -6 -52 -28 -60
-36 -9 -9 -44 -30 -67 -40 -13 -5 -23 -14 -23 -20 0 -5 -6 -10 -13 -10 -20 0
-231 -220 -250 -260 -4 -8 -25 -46 -46 -85 -22 -38 -40 -80 -40 -92 -1 -13 -5
-23 -11 -23 -5 0 -12 -17 -15 -37 -3 -21 -10 -45 -15 -54 -5 -9 -12 -44 -16
-78 -4 -34 -11 -64 -15 -67 -5 -3 -9 -32 -9 -65 l0 -59 -299 0 -299 0 -7 140
c-4 77 -11 140 -16 140 -5 0 -9 23 -9 50 0 28 -4 50 -9 50 -5 0 -12 26 -16 58
-4 31 -10 62 -15 67 -4 6 -10 29 -14 53 -3 24 -11 51 -16 60 -6 9 -14 29 -20
45 -11 31 -40 37 -40 8 0 -11 -6 -26 -12 -33 -26 -27 -39 -60 -33 -79 6 -17
-10 -81 -26 -104 -4 -5 -10 -41 -14 -80 -4 -38 -11 -75 -15 -80 -5 -6 -12 -74
-16 -153 l-7 -142 -298 0 -299 0 0 74 c0 41 -4 77 -9 80 -4 3 -11 26 -14 51
-4 24 -11 54 -17 65 -5 11 -14 29 -20 40 -5 10 -13 37 -16 60 -4 22 -10 40
-14 40 -5 0 -11 13 -15 30 -4 16 -10 30 -15 30 -4 0 -10 10 -14 23 -14 58
-170 235 -288 328 -41 32 -167 109 -179 109 -4 0 -25 7 -46 16 -21 9 -47 20
-58 24 -11 4 -37 15 -58 24 -21 9 -49 16 -62 16 -13 0 -27 4 -30 10 -3 5 -44
10 -91 10 l-84 0 0 294 0 295 83 5 c122 7 279 26 302 36 11 4 40 11 65 15 24
3 49 10 55 14 5 5 26 11 45 14 42 6 150 52 150 64 0 10 -46 31 -88 39 -18 4
-35 11 -38 15 -3 5 -18 9 -34 9 -16 0 -31 4 -34 9 -3 5 -33 12 -66 16 -33 4
-60 11 -60 15 0 5 -54 11 -120 15 -66 4 -123 12 -126 16 -3 5 -34 9 -70 9
l-64 0 0 294 c0 338 -12 304 115 317 96 9 186 27 199 40 6 5 18 9 29 9 10 0
48 14 84 30 35 17 69 30 74 30 5 0 9 4 9 10 0 5 16 16 35 25 19 9 39 23 46 31
6 8 17 14 23 14 17 0 233 226 249 260 4 8 25 47 46 85 22 39 40 77 40 85 1 9
10 33 21 55 11 22 20 47 20 57 0 9 4 27 9 40 5 13 15 71 22 131 l13 107 292 0
292 0 6 -57z"/>
<path d="M2072 3618 c-7 -7 -12 -18 -12 -25 0 -7 -4 -13 -9 -13 -5 0 -12 -8
-15 -17 -13 -35 -37 -73 -47 -73 -5 0 -9 -6 -9 -13 0 -8 -11 -24 -25 -37 -14
-13 -25 -28 -25 -34 0 -13 -221 -236 -234 -236 -5 0 -25 -14 -45 -30 -52 -44
-74 -58 -141 -91 -57 -28 -55 -26 -41 -43 6 -7 30 -17 53 -20 23 -4 47 -11 53
-15 5 -5 23 -11 40 -15 16 -4 52 -18 80 -31 88 -41 123 -55 133 -55 6 0 12 -4
14 -8 2 -4 29 -21 61 -36 52 -27 60 -28 85 -16 15 8 91 77 170 154 111 110
142 146 142 167 0 15 -20 66 -45 115 -25 48 -45 94 -45 102 0 8 -9 26 -19 41
-11 15 -23 40 -27 56 -4 16 -13 40 -20 54 -8 14 -14 34 -14 43 0 9 -4 20 -10
23 -5 3 -10 14 -10 24 0 26 -23 44 -38 29z"/>
<path d="M3015 3584 c-3 -25 -14 -60 -24 -78 -10 -17 -21 -45 -24 -63 -4 -18
-18 -50 -32 -73 -14 -22 -25 -45 -25 -52 -1 -7 -14 -38 -30 -68 -17 -30 -30
-61 -30 -67 0 -7 -4 -13 -10 -13 -23 0 -7 -37 39 -89 72 -83 233 -243 264
-263 33 -22 61 -23 77 -2 11 13 192 104 207 104 5 0 52 19 108 45 17 8 46 17
65 21 47 9 64 22 49 40 -6 8 -18 14 -25 14 -8 0 -14 4 -14 9 0 5 -8 12 -17 15
-33 13 -63 31 -63 38 0 4 -15 15 -32 24 -18 9 -37 23 -41 30 -4 8 -13 14 -20
14 -14 0 -219 205 -265 266 -18 23 -32 46 -32 52 0 6 -3 12 -7 14 -11 4 -46
55 -67 96 -24 46 -42 41 -51 -14z"/>
<path d="M2446 2666 c-64 -63 -116 -121 -116 -128 0 -15 220 -238 235 -238 6
0 64 54 129 119 l119 119 -121 121 c-66 67 -123 121 -125 121 -3 0 -57 -51
-121 -114z"/>
<path d="M1873 2246 c-16 -14 -41 -28 -56 -31 -15 -4 -27 -11 -27 -15 0 -5
-13 -11 -30 -15 -16 -4 -30 -10 -30 -15 0 -5 -14 -12 -32 -15 -17 -4 -46 -15
-63 -25 -17 -10 -46 -21 -63 -25 -18 -3 -34 -11 -37 -16 -4 -5 -17 -9 -31 -9
-37 0 -29 -27 16 -50 56 -29 210 -142 210 -155 0 -6 10 -15 22 -20 24 -11 228
-232 228 -247 0 -5 4 -14 10 -21 33 -40 57 -77 74 -109 11 -21 24 -38 29 -38
13 0 36 31 37 48 0 8 6 28 13 45 8 18 22 59 31 92 10 33 31 86 47 117 16 32
29 67 29 78 0 11 3 20 8 20 4 0 15 21 26 46 16 40 17 49 5 71 -18 34 -260 283
-275 283 -6 0 -17 7 -24 15 -20 24 -84 19 -117 -9z"/>
<path d="M3141 2255 c-32 -18 -291 -277 -291 -291 0 -6 -7 -17 -15 -24 -20
-16 -19 -21 8 -50 13 -14 27 -38 31 -53 3 -15 11 -27 16 -27 6 0 10 -5 10 -11
0 -11 12 -40 56 -134 12 -27 26 -61 29 -75 3 -14 10 -34 15 -45 5 -11 11 -37
15 -57 4 -29 11 -38 26 -38 11 0 22 8 26 18 3 9 16 30 27 47 24 34 42 63 52
85 4 8 18 25 31 37 13 12 23 26 23 31 0 8 214 220 260 257 27 21 56 40 80 51
8 4 24 15 35 24 11 10 33 24 50 31 39 18 46 49 11 49 -14 0 -27 4 -30 9 -3 5
-22 12 -41 15 -19 4 -35 11 -35 15 0 5 -16 11 -37 14 -34 6 -142 54 -153 69
-3 3 -18 10 -33 13 -15 4 -30 11 -33 16 -3 5 -13 9 -23 9 -10 0 -24 7 -31 15
-15 18 -46 18 -79 0z"/>
</g>
</svg>
